<svg width="1792" height="121" viewBox="0 0 1792 121" fill="none" xmlns="http://www.w3.org/2000/svg">
<path d="M180.5 118C178.157 121.166 178.343 121.318 176 118C176 118 175.38 65.7588 176 55C176.62 44.2412 178.69 36.7244 177.5 26C175.354 25.6506 170.796 28.9218 169.5 37V57C167.315 58.7632 167.527 59.0514 165 57V37.5C165 29.5 170.981 20.7829 180.5 16.5C178.743 13.3758 176.5 13.5 176 8.5C175.5 3.5 180.5 1 184.5 1C188.5 1 193.5 4 192 8.5C190.5 13 188 16.5 188 16.5C197.474 21.1655 202 25 203 37.5C204 50 203 57.5 203 57.5C201.242 59.5984 200.257 59.5139 198.5 57.5V37.5C198.422 30.2887 191.486 23.2558 191 26C190.514 28.7442 192.139 44.263 193 55C193.861 65.737 193 118 193 118C190.266 121.092 190.733 121.417 188 118V63H180.5V118Z" fill="#EBBC70" stroke="black"/>
<path d="M582.5 118C583.349 82.5399 584.892 62.5099 582.5 27.5C579.596 30.6889 579.061 32.3498 578.5 37V57C576.315 58.7632 575.527 59.0514 573 57V37.5C573 29.5 578.981 20.7829 588.5 16.5C586.743 13.3758 584 13 584 8.5C584 4 588.5 1 592.5 1C596.5 1 600.5 4 600 8.5C599.5 13 596 16.5 596 16.5C605.474 21.1655 610 25 611 37.5C612 50 611 57.5 611 57.5C609.242 59.5984 607.257 59.5139 605.5 57.5V37.5C604.911 33.1854 604.907 31.006 602 27.5C599.598 62.8424 601.02 82.6575 602 118C599.266 121.092 597.733 121.417 595 118V63H589.5V118C587.157 121.166 584.843 121.318 582.5 118Z" fill="#ADC674" stroke="black"/>
<path d="M980.503 118C978.16 121.166 974.845 121.318 972.503 118V57C970.943 45.215 970.951 38.7443 972.503 27.5C969.598 30.6889 969.063 32.3498 968.503 37V57C966.317 58.7632 964.53 59.0514 962.003 57C962.003 57 962.156 46.9789 962.003 37.5C961.849 28.0211 968.802 19.042 978.503 16.5C976.745 13.3758 974.503 13.5 974.003 8.5C973.503 3.5 978.503 1 982.503 1C986.503 1 989.458 3.77579 990.003 8.5C990.547 13.2242 986.871 16.5954 986.003 16.5C995.548 19.6587 1001.06 23.8527 1002 37.5C1002.95 51.1473 1002 57.5 1002 57.5C1000.24 59.5984 997.259 59.5139 995.503 57.5V37.5C994.914 33.1854 994.909 31.006 992.003 27.5C993.548 39.0278 993.567 45.4712 992.003 57V118C989.269 121.092 986.736 121.417 984.003 118V63H980.503V118Z" fill="#DB9D8C" stroke="black"/>
<path d="M1306.54 118C1304.19 121.166 1298.88 121.318 1296.54 118V57.5C1294.91 45.7848 1294.96 39.2163 1296.54 27.5C1293.63 30.6889 1293.1 32.3498 1292.54 37V57C1290.35 58.7632 1288.56 59.0514 1286.04 57C1286.04 57 1286.65 48.7007 1286.04 37.5C1285.43 26.2993 1292.24 16.6979 1302.54 16.5C1300.78 13.3758 1300.54 13.5 1300.04 8.5C1299.54 3.5 1302.54 1 1308.54 1C1314.54 1 1317.04 4 1315.54 8.5C1314.04 13 1314.04 16.5 1314.04 16.5C1324.4 18.0984 1329.75 22.5501 1330.04 37.5C1330.33 52.4499 1330.04 57.5 1330.04 57.5C1328.28 59.5984 1325.29 59.5139 1323.54 57.5V37.5C1322.95 33.1854 1322.94 31.006 1320.04 27.5C1321.37 39.2161 1321.85 45.784 1320.04 57.5V118C1317.3 121.092 1312.77 121.417 1310.04 118V63H1306.54V118Z" fill="#C9735B" stroke="black"/>
<path d="M1636.53 118C1634.19 121.166 1626.88 121.318 1624.53 118V57.5C1622.91 45.7848 1622.96 39.2163 1624.53 27.5C1621.63 30.6889 1621.09 32.3498 1620.53 37V57C1618.35 58.7632 1616.56 59.0514 1614.03 57C1614.03 57 1614.64 48.4401 1614.03 37.5C1613.43 26.5599 1621.21 16.8927 1631.53 16.5C1629.78 13.3758 1630.53 13.5 1630.03 8.5C1629.53 3.5 1630.53 1 1638.53 1C1646.53 1 1647.03 4 1645.53 8.5C1644.03 13 1645.03 16.5 1645.03 16.5C1655.59 17.3579 1662.28 20.5883 1662.03 37.5C1661.78 54.4117 1662.03 57.5 1662.03 57.5C1660.28 59.5984 1657.29 59.5139 1655.53 57.5V37.5C1654.94 33.1854 1654.94 31.006 1652.03 27.5C1653.36 39.2161 1653.84 45.784 1652.03 57.5V118C1649.3 121.092 1642.77 121.417 1640.03 118V63H1636.53V118Z" fill="#B55F47" stroke="black"/>
</svg>
