<svg width="335" height="104" viewBox="0 0 335 104" fill="none" xmlns="http://www.w3.org/2000/svg">
<path d="M213.125 37.7188L214.656 29.625H216.992L214.469 41H212.109L210.258 33.3906L208.406 41H206.047L203.523 29.625H205.859L207.398 37.7031L209.273 29.625H211.258L213.125 37.7188ZM221.758 41.1562C220.518 41.1562 219.508 40.776 218.727 40.0156C217.951 39.2552 217.562 38.2422 217.562 36.9766V36.7578C217.562 35.9089 217.727 35.151 218.055 34.4844C218.383 33.8125 218.846 33.2969 219.445 32.9375C220.049 32.5729 220.737 32.3906 221.508 32.3906C222.664 32.3906 223.573 32.7552 224.234 33.4844C224.901 34.2135 225.234 35.2474 225.234 36.5859V37.5078H219.852C219.924 38.0599 220.143 38.5026 220.508 38.8359C220.878 39.1693 221.344 39.3359 221.906 39.3359C222.776 39.3359 223.456 39.0208 223.945 38.3906L225.055 39.6328C224.716 40.112 224.258 40.487 223.68 40.7578C223.102 41.0234 222.461 41.1562 221.758 41.1562ZM221.5 34.2188C221.052 34.2188 220.688 34.3698 220.406 34.6719C220.13 34.974 219.953 35.4062 219.875 35.9688H223.016V35.7891C223.005 35.2891 222.87 34.9036 222.609 34.6328C222.349 34.3568 221.979 34.2188 221.5 34.2188ZM228.906 41H226.641V32.5469H228.906V41ZM226.508 30.3594C226.508 30.0208 226.62 29.7422 226.844 29.5234C227.073 29.3047 227.383 29.1953 227.773 29.1953C228.159 29.1953 228.466 29.3047 228.695 29.5234C228.924 29.7422 229.039 30.0208 229.039 30.3594C229.039 30.7031 228.922 30.9844 228.688 31.2031C228.458 31.4219 228.154 31.5312 227.773 31.5312C227.393 31.5312 227.086 31.4219 226.852 31.2031C226.622 30.9844 226.508 30.7031 226.508 30.3594ZM230.445 36.7109C230.445 35.4141 230.753 34.3698 231.367 33.5781C231.987 32.7865 232.82 32.3906 233.867 32.3906C234.794 32.3906 235.516 32.7083 236.031 33.3438L236.125 32.5469H238.172V40.7188C238.172 41.4583 238.003 42.1016 237.664 42.6484C237.331 43.1953 236.859 43.612 236.25 43.8984C235.641 44.1849 234.927 44.3281 234.109 44.3281C233.49 44.3281 232.885 44.2031 232.297 43.9531C231.708 43.7083 231.263 43.3906 230.961 43L231.961 41.625C232.523 42.2552 233.206 42.5703 234.008 42.5703C234.607 42.5703 235.073 42.4089 235.406 42.0859C235.74 41.7682 235.906 41.3151 235.906 40.7266V40.2734C235.385 40.862 234.701 41.1562 233.852 41.1562C232.836 41.1562 232.013 40.7604 231.383 39.9688C230.758 39.1719 230.445 38.1172 230.445 36.8047V36.7109ZM232.703 36.875C232.703 37.6406 232.857 38.2422 233.164 38.6797C233.471 39.112 233.893 39.3281 234.43 39.3281C235.117 39.3281 235.609 39.0703 235.906 38.5547V35C235.604 34.4844 235.117 34.2266 234.445 34.2266C233.904 34.2266 233.477 34.4479 233.164 34.8906C232.857 35.3333 232.703 35.9948 232.703 36.875ZM242.117 33.4688C242.716 32.75 243.469 32.3906 244.375 32.3906C246.208 32.3906 247.138 33.4557 247.164 35.5859V41H244.906V35.6484C244.906 35.1641 244.802 34.8073 244.594 34.5781C244.385 34.3438 244.039 34.2266 243.555 34.2266C242.893 34.2266 242.414 34.4818 242.117 34.9922V41H239.859V29H242.117V33.4688ZM251.57 30.4688V32.5469H253.016V34.2031H251.57V38.4219C251.57 38.7344 251.63 38.9583 251.75 39.0938C251.87 39.2292 252.099 39.2969 252.438 39.2969C252.688 39.2969 252.909 39.2786 253.102 39.2422V40.9531C252.659 41.0885 252.203 41.1562 251.734 41.1562C250.151 41.1562 249.344 40.3568 249.312 38.7578V34.2031H248.078V32.5469H249.312V30.4688H251.57ZM258.359 36.375C258.359 35.1823 258.518 34.0469 258.836 32.9688C259.154 31.8906 259.622 30.9375 260.242 30.1094C260.862 29.276 261.534 28.6979 262.258 28.375L262.695 29.5938C261.935 30.1562 261.341 31.026 260.914 32.2031C260.487 33.3802 260.273 34.7552 260.273 36.3281V36.5703C260.273 38.1484 260.484 39.5286 260.906 40.7109C261.328 41.8932 261.924 42.776 262.695 43.3594L262.258 44.5547C261.549 44.237 260.888 43.6745 260.273 42.8672C259.664 42.0651 259.198 41.138 258.875 40.0859C258.552 39.0339 258.38 37.9349 258.359 36.7891V36.375ZM267.594 36.4375L266.375 37.75V41H264.031V29.625H266.375V34.7812L267.406 33.3672L270.305 29.625H273.188L269.148 34.6797L273.305 41H270.516L267.594 36.4375ZM273.508 36.7109C273.508 35.4141 273.815 34.3698 274.43 33.5781C275.049 32.7865 275.883 32.3906 276.93 32.3906C277.857 32.3906 278.578 32.7083 279.094 33.3438L279.188 32.5469H281.234V40.7188C281.234 41.4583 281.065 42.1016 280.727 42.6484C280.393 43.1953 279.922 43.612 279.312 43.8984C278.703 44.1849 277.99 44.3281 277.172 44.3281C276.552 44.3281 275.948 44.2031 275.359 43.9531C274.771 43.7083 274.326 43.3906 274.023 43L275.023 41.625C275.586 42.2552 276.268 42.5703 277.07 42.5703C277.669 42.5703 278.135 42.4089 278.469 42.0859C278.802 41.7682 278.969 41.3151 278.969 40.7266V40.2734C278.448 40.862 277.763 41.1562 276.914 41.1562C275.898 41.1562 275.076 40.7604 274.445 39.9688C273.82 39.1719 273.508 38.1172 273.508 36.8047V36.7109ZM275.766 36.875C275.766 37.6406 275.919 38.2422 276.227 38.6797C276.534 39.112 276.956 39.3281 277.492 39.3281C278.18 39.3281 278.672 39.0703 278.969 38.5547V35C278.667 34.4844 278.18 34.2266 277.508 34.2266C276.966 34.2266 276.539 34.4479 276.227 34.8906C275.919 35.3333 275.766 35.9948 275.766 36.875ZM286.867 36.5547C286.867 37.7318 286.698 38.8646 286.359 39.9531C286.021 41.0417 285.534 42.0026 284.898 42.8359C284.263 43.6693 283.583 44.2422 282.859 44.5547L282.422 43.3594C283.161 42.8021 283.745 41.9427 284.172 40.7812C284.599 39.6198 284.82 38.2839 284.836 36.7734V36.3594C284.836 34.8021 284.622 33.4297 284.195 32.2422C283.773 31.0547 283.182 30.1641 282.422 29.5703L282.859 28.375C283.568 28.6823 284.234 29.2396 284.859 30.0469C285.49 30.8542 285.977 31.7943 286.32 32.8672C286.669 33.9401 286.852 35.0521 286.867 36.2031V36.5547Z" fill="black"/>
<path d="M168.984 70H166.641V65.125H162.07V70H159.727V58.625H162.07V63.2344H166.641V58.625H168.984V70ZM174.781 70.1562C173.542 70.1562 172.531 69.776 171.75 69.0156C170.974 68.2552 170.586 67.2422 170.586 65.9766V65.7578C170.586 64.9089 170.75 64.151 171.078 63.4844C171.406 62.8125 171.87 62.2969 172.469 61.9375C173.073 61.5729 173.76 61.3906 174.531 61.3906C175.688 61.3906 176.596 61.7552 177.258 62.4844C177.924 63.2135 178.258 64.2474 178.258 65.5859V66.5078H172.875C172.948 67.0599 173.167 67.5026 173.531 67.8359C173.901 68.1693 174.367 68.3359 174.93 68.3359C175.799 68.3359 176.479 68.0208 176.969 67.3906L178.078 68.6328C177.74 69.112 177.281 69.487 176.703 69.7578C176.125 70.0234 175.484 70.1562 174.781 70.1562ZM174.523 63.2188C174.076 63.2188 173.711 63.3698 173.43 63.6719C173.154 63.974 172.977 64.4062 172.898 64.9688H176.039V64.7891C176.029 64.2891 175.893 63.9036 175.633 63.6328C175.372 63.3568 175.003 63.2188 174.523 63.2188ZM181.93 70H179.664V61.5469H181.93V70ZM179.531 59.3594C179.531 59.0208 179.643 58.7422 179.867 58.5234C180.096 58.3047 180.406 58.1953 180.797 58.1953C181.182 58.1953 181.49 58.3047 181.719 58.5234C181.948 58.7422 182.062 59.0208 182.062 59.3594C182.062 59.7031 181.945 59.9844 181.711 60.2031C181.482 60.4219 181.177 60.5312 180.797 60.5312C180.417 60.5312 180.109 60.4219 179.875 60.2031C179.646 59.9844 179.531 59.7031 179.531 59.3594ZM183.469 65.7109C183.469 64.4141 183.776 63.3698 184.391 62.5781C185.01 61.7865 185.844 61.3906 186.891 61.3906C187.818 61.3906 188.539 61.7083 189.055 62.3438L189.148 61.5469H191.195V69.7188C191.195 70.4583 191.026 71.1016 190.688 71.6484C190.354 72.1953 189.883 72.612 189.273 72.8984C188.664 73.1849 187.951 73.3281 187.133 73.3281C186.513 73.3281 185.909 73.2031 185.32 72.9531C184.732 72.7083 184.286 72.3906 183.984 72L184.984 70.625C185.547 71.2552 186.229 71.5703 187.031 71.5703C187.63 71.5703 188.096 71.4089 188.43 71.0859C188.763 70.7682 188.93 70.3151 188.93 69.7266V69.2734C188.409 69.862 187.724 70.1562 186.875 70.1562C185.859 70.1562 185.036 69.7604 184.406 68.9688C183.781 68.1719 183.469 67.1172 183.469 65.8047V65.7109ZM185.727 65.875C185.727 66.6406 185.88 67.2422 186.188 67.6797C186.495 68.112 186.917 68.3281 187.453 68.3281C188.141 68.3281 188.633 68.0703 188.93 67.5547V64C188.628 63.4844 188.141 63.2266 187.469 63.2266C186.927 63.2266 186.5 63.4479 186.188 63.8906C185.88 64.3333 185.727 64.9948 185.727 65.875ZM195.141 62.4688C195.74 61.75 196.492 61.3906 197.398 61.3906C199.232 61.3906 200.161 62.4557 200.188 64.5859V70H197.93V64.6484C197.93 64.1641 197.826 63.8073 197.617 63.5781C197.409 63.3438 197.062 63.2266 196.578 63.2266C195.917 63.2266 195.438 63.4818 195.141 63.9922V70H192.883V58H195.141V62.4688ZM204.594 59.4688V61.5469H206.039V63.2031H204.594V67.4219C204.594 67.7344 204.654 67.9583 204.773 68.0938C204.893 68.2292 205.122 68.2969 205.461 68.2969C205.711 68.2969 205.932 68.2786 206.125 68.2422V69.9531C205.682 70.0885 205.227 70.1562 204.758 70.1562C203.174 70.1562 202.367 69.3568 202.336 67.7578V63.2031H201.102V61.5469H202.336V59.4688H204.594ZM211.383 65.375C211.383 64.1823 211.542 63.0469 211.859 61.9688C212.177 60.8906 212.646 59.9375 213.266 59.1094C213.885 58.276 214.557 57.6979 215.281 57.375L215.719 58.5938C214.958 59.1562 214.365 60.026 213.938 61.2031C213.51 62.3802 213.297 63.7552 213.297 65.3281V65.5703C213.297 67.1484 213.508 68.5286 213.93 69.7109C214.352 70.8932 214.948 71.776 215.719 72.3594L215.281 73.5547C214.573 73.237 213.911 72.6745 213.297 71.8672C212.688 71.0651 212.221 70.138 211.898 69.0859C211.576 68.0339 211.404 66.9349 211.383 65.7891V65.375ZM219.023 61.5469L219.094 62.4922C219.693 61.7578 220.503 61.3906 221.523 61.3906C222.612 61.3906 223.359 61.8203 223.766 62.6797C224.359 61.8203 225.206 61.3906 226.305 61.3906C227.221 61.3906 227.904 61.6589 228.352 62.1953C228.799 62.7266 229.023 63.5286 229.023 64.6016V70H226.758V64.6094C226.758 64.1302 226.664 63.7812 226.477 63.5625C226.289 63.3385 225.958 63.2266 225.484 63.2266C224.807 63.2266 224.339 63.5495 224.078 64.1953L224.086 70H221.828V64.6172C221.828 64.1276 221.732 63.7734 221.539 63.5547C221.346 63.3359 221.018 63.2266 220.555 63.2266C219.914 63.2266 219.451 63.4922 219.164 64.0234V70H216.906V61.5469H219.023ZM234.656 65.5547C234.656 66.7318 234.487 67.8646 234.148 68.9531C233.81 70.0417 233.323 71.0026 232.688 71.8359C232.052 72.6693 231.372 73.2422 230.648 73.5547L230.211 72.3594C230.951 71.8021 231.534 70.9427 231.961 69.7812C232.388 68.6198 232.609 67.2839 232.625 65.7734V65.3594C232.625 63.8021 232.411 62.4297 231.984 61.2422C231.562 60.0547 230.971 59.1641 230.211 58.5703L230.648 57.375C231.357 57.6823 232.023 58.2396 232.648 59.0469C233.279 59.8542 233.766 60.7943 234.109 61.8672C234.458 62.9401 234.641 64.0521 234.656 65.2031V65.5547ZM265.734 70H263.391V65.125H258.82V70H256.477V58.625H258.82V63.2344H263.391V58.625H265.734V70ZM271.531 70.1562C270.292 70.1562 269.281 69.776 268.5 69.0156C267.724 68.2552 267.336 67.2422 267.336 65.9766V65.7578C267.336 64.9089 267.5 64.151 267.828 63.4844C268.156 62.8125 268.62 62.2969 269.219 61.9375C269.823 61.5729 270.51 61.3906 271.281 61.3906C272.438 61.3906 273.346 61.7552 274.008 62.4844C274.674 63.2135 275.008 64.2474 275.008 65.5859V66.5078H269.625C269.698 67.0599 269.917 67.5026 270.281 67.8359C270.651 68.1693 271.117 68.3359 271.68 68.3359C272.549 68.3359 273.229 68.0208 273.719 67.3906L274.828 68.6328C274.49 69.112 274.031 69.487 273.453 69.7578C272.875 70.0234 272.234 70.1562 271.531 70.1562ZM271.273 63.2188C270.826 63.2188 270.461 63.3698 270.18 63.6719C269.904 63.974 269.727 64.4062 269.648 64.9688H272.789V64.7891C272.779 64.2891 272.643 63.9036 272.383 63.6328C272.122 63.3568 271.753 63.2188 271.273 63.2188ZM278.68 70H276.414V61.5469H278.68V70ZM276.281 59.3594C276.281 59.0208 276.393 58.7422 276.617 58.5234C276.846 58.3047 277.156 58.1953 277.547 58.1953C277.932 58.1953 278.24 58.3047 278.469 58.5234C278.698 58.7422 278.812 59.0208 278.812 59.3594C278.812 59.7031 278.695 59.9844 278.461 60.2031C278.232 60.4219 277.927 60.5312 277.547 60.5312C277.167 60.5312 276.859 60.4219 276.625 60.2031C276.396 59.9844 276.281 59.7031 276.281 59.3594ZM280.219 65.7109C280.219 64.4141 280.526 63.3698 281.141 62.5781C281.76 61.7865 282.594 61.3906 283.641 61.3906C284.568 61.3906 285.289 61.7083 285.805 62.3438L285.898 61.5469H287.945V69.7188C287.945 70.4583 287.776 71.1016 287.438 71.6484C287.104 72.1953 286.633 72.612 286.023 72.8984C285.414 73.1849 284.701 73.3281 283.883 73.3281C283.263 73.3281 282.659 73.2031 282.07 72.9531C281.482 72.7083 281.036 72.3906 280.734 72L281.734 70.625C282.297 71.2552 282.979 71.5703 283.781 71.5703C284.38 71.5703 284.846 71.4089 285.18 71.0859C285.513 70.7682 285.68 70.3151 285.68 69.7266V69.2734C285.159 69.862 284.474 70.1562 283.625 70.1562C282.609 70.1562 281.786 69.7604 281.156 68.9688C280.531 68.1719 280.219 67.1172 280.219 65.8047V65.7109ZM282.477 65.875C282.477 66.6406 282.63 67.2422 282.938 67.6797C283.245 68.112 283.667 68.3281 284.203 68.3281C284.891 68.3281 285.383 68.0703 285.68 67.5547V64C285.378 63.4844 284.891 63.2266 284.219 63.2266C283.677 63.2266 283.25 63.4479 282.938 63.8906C282.63 64.3333 282.477 64.9948 282.477 65.875ZM291.891 62.4688C292.49 61.75 293.242 61.3906 294.148 61.3906C295.982 61.3906 296.911 62.4557 296.938 64.5859V70H294.68V64.6484C294.68 64.1641 294.576 63.8073 294.367 63.5781C294.159 63.3438 293.812 63.2266 293.328 63.2266C292.667 63.2266 292.188 63.4818 291.891 63.9922V70H289.633V58H291.891V62.4688ZM301.344 59.4688V61.5469H302.789V63.2031H301.344V67.4219C301.344 67.7344 301.404 67.9583 301.523 68.0938C301.643 68.2292 301.872 68.2969 302.211 68.2969C302.461 68.2969 302.682 68.2786 302.875 68.2422V69.9531C302.432 70.0885 301.977 70.1562 301.508 70.1562C299.924 70.1562 299.117 69.3568 299.086 67.7578V63.2031H297.852V61.5469H299.086V59.4688H301.344ZM308.133 65.375C308.133 64.1823 308.292 63.0469 308.609 61.9688C308.927 60.8906 309.396 59.9375 310.016 59.1094C310.635 58.276 311.307 57.6979 312.031 57.375L312.469 58.5938C311.708 59.1562 311.115 60.026 310.688 61.2031C310.26 62.3802 310.047 63.7552 310.047 65.3281V65.5703C310.047 67.1484 310.258 68.5286 310.68 69.7109C311.102 70.8932 311.698 71.776 312.469 72.3594L312.031 73.5547C311.323 73.237 310.661 72.6745 310.047 71.8672C309.438 71.0651 308.971 70.138 308.648 69.0859C308.326 68.0339 308.154 66.9349 308.133 65.7891V65.375ZM315.773 61.5469L315.844 62.4922C316.443 61.7578 317.253 61.3906 318.273 61.3906C319.362 61.3906 320.109 61.8203 320.516 62.6797C321.109 61.8203 321.956 61.3906 323.055 61.3906C323.971 61.3906 324.654 61.6589 325.102 62.1953C325.549 62.7266 325.773 63.5286 325.773 64.6016V70H323.508V64.6094C323.508 64.1302 323.414 63.7812 323.227 63.5625C323.039 63.3385 322.708 63.2266 322.234 63.2266C321.557 63.2266 321.089 63.5495 320.828 64.1953L320.836 70H318.578V64.6172C318.578 64.1276 318.482 63.7734 318.289 63.5547C318.096 63.3359 317.768 63.2266 317.305 63.2266C316.664 63.2266 316.201 63.4922 315.914 64.0234V70H313.656V61.5469H315.773ZM331.406 65.5547C331.406 66.7318 331.237 67.8646 330.898 68.9531C330.56 70.0417 330.073 71.0026 329.438 71.8359C328.802 72.6693 328.122 73.2422 327.398 73.5547L326.961 72.3594C327.701 71.8021 328.284 70.9427 328.711 69.7812C329.138 68.6198 329.359 67.2839 329.375 65.7734V65.3594C329.375 63.8021 329.161 62.4297 328.734 61.2422C328.312 60.0547 327.721 59.1641 326.961 58.5703L327.398 57.375C328.107 57.6823 328.773 58.2396 329.398 59.0469C330.029 59.8542 330.516 60.7943 330.859 61.8672C331.208 62.9401 331.391 64.0521 331.406 65.2031V65.5547Z" fill="black"/>
<circle cx="52" cy="52" r="52" fill="#9ACCD3"/>
<path d="M35.2031 59V44.7812H40.1836C41.9089 44.7812 43.2174 45.1133 44.1094 45.7773C45.0013 46.4349 45.4473 47.4017 45.4473 48.6777C45.4473 49.3743 45.2682 49.9896 44.9102 50.5234C44.5521 51.0508 44.054 51.4382 43.416 51.6855C44.1452 51.8678 44.7181 52.2357 45.1348 52.7891C45.5579 53.3424 45.7695 54.0195 45.7695 54.8203C45.7695 56.1875 45.3333 57.2227 44.4609 57.9258C43.5885 58.6289 42.3451 58.987 40.7305 59H35.2031ZM38.1328 52.8086V56.6465H40.6426C41.3327 56.6465 41.8698 56.4837 42.2539 56.1582C42.6445 55.8262 42.8398 55.3704 42.8398 54.791C42.8398 53.4889 42.166 52.8281 40.8184 52.8086H38.1328ZM38.1328 50.7383H40.3008C41.7786 50.7122 42.5176 50.123 42.5176 48.9707C42.5176 48.3262 42.3288 47.8639 41.9512 47.584C41.5801 47.2975 40.9909 47.1543 40.1836 47.1543H38.1328V50.7383ZM51.8047 44.7812L55.457 55.0938L59.0898 44.7812H62.9375V59H59.998V55.1133L60.291 48.4043L56.4531 59H54.4414L50.6133 48.4141L50.9062 55.1133V59H47.9766V44.7812H51.8047ZM68.6113 59H65.6816V44.7812H68.6113V59Z" fill="black"/>
<rect x="119.601" y="41.5977" width="23.4" height="7.8" fill="#9ACCD3"/>
<rect x="119.601" y="54.5977" width="23.4" height="7.8" fill="#9ACCD3"/>
<line x1="157.3" y1="50.7012" x2="334.1" y2="50.7012" stroke="#9ACCD3" stroke-width="4"/>
<line x1="239.007" y1="59.0917" x2="250.707" y2="70.7917" stroke="#9ACCD3" stroke-width="2"/>
<line x1="239.243" y1="70.7929" x2="250.943" y2="59.0929" stroke="#9ACCD3" stroke-width="2"/>
</svg>
