<svg width="369" height="190" viewBox="0 0 369 190" fill="none" xmlns="http://www.w3.org/2000/svg">
<rect y="13" width="70" height="145" rx="8" fill="#EBBC70"/>
<rect x="74" y="13" width="70" height="145" rx="8" fill="#ADC674"/>
<rect x="148" y="13" width="70" height="145" rx="8" fill="#ECAA7B"/>
<rect x="222" y="13" width="70" height="145" rx="8" fill="#E68C5F"/>
<rect x="296" y="13" width="70" height="145" rx="8" fill="#DC7356"/>
<path d="M32 143C29.6572 146.166 29.8427 146.318 27.5 143C27.5 143 26.8803 90.7588 27.5 80C28.1197 69.2412 30.19 61.7244 29 51C26.8541 50.6506 22.2958 53.9218 21 62V82C18.8149 83.7632 19.0271 84.0514 16.5 82V62.5C16.5 54.5 22.4806 45.7829 32 41.5C30.2426 38.3758 28 38.5 27.5 33.5C27 28.5 32 26 36 26C40 26 45 29 43.5 33.5C42 38 39.5 41.5 39.5 41.5C48.974 46.1655 53.5 50 54.5 62.5C55.5 75 54.5 82.5 54.5 82.5C52.7423 84.5984 51.757 84.5139 50 82.5V62.5C49.9216 55.2887 42.9859 48.2558 42.5 51C42.0141 53.7442 43.6393 69.263 44.5 80C45.3607 90.737 44.5 143 44.5 143C41.7665 146.092 42.2335 146.417 39.5 143V88H32V143Z" fill="#FBF8F2" stroke="#FBF8F2"/>
<path d="M99.5 143C100.349 107.54 101.892 87.5099 99.5 52.5C96.5955 55.6889 96.0609 57.3498 95.5 62V82C93.3149 83.7632 92.5271 84.0514 90 82V62.5C90 54.5 95.9806 45.7829 105.5 41.5C103.743 38.3758 101 38 101 33.5C101 29 105.5 26 109.5 26C113.5 26 117.5 29 117 33.5C116.5 38 113 41.5 113 41.5C122.474 46.1655 127 50 128 62.5C129 75 128 82.5 128 82.5C126.242 84.5984 124.257 84.5139 122.5 82.5V62.5C121.911 58.1854 121.907 56.006 119 52.5C116.598 87.8424 118.02 107.657 119 143C116.266 146.092 114.733 146.417 112 143V88H106.5V143C104.157 146.166 101.843 146.318 99.5 143Z" fill="#FBF8F2" stroke="#FBF8F2"/>
<path d="M181.5 143C179.157 146.166 175.843 146.318 173.5 143V82C171.94 70.215 171.949 63.7443 173.5 52.5C170.596 55.6889 170.061 57.3498 169.5 62V82C167.315 83.7632 165.527 84.0514 163 82C163 82 163.154 71.9789 163 62.5C162.846 53.0211 169.8 44.042 179.5 41.5C177.743 38.3758 175.5 38.5 175 33.5C174.5 28.5 179.5 26 183.5 26C187.5 26 190.456 28.7758 191 33.5C191.544 38.2242 187.869 41.5954 187 41.5C196.546 44.6587 202.055 48.8527 203 62.5C203.945 76.1473 203 82.5 203 82.5C201.242 84.5984 198.257 84.5139 196.5 82.5V62.5C195.911 58.1854 195.907 56.006 193 52.5C194.546 64.0278 194.565 70.4712 193 82V143C190.267 146.092 187.734 146.417 185 143V88H181.5V143Z" fill="#FBF8F2" stroke="#FBF8F2"/>
<path d="M256.5 143C254.157 146.166 248.843 146.318 246.5 143V82.5C244.877 70.7848 244.927 64.2163 246.5 52.5C243.595 55.6889 243.061 57.3498 242.5 62V82C240.315 83.7632 238.527 84.0514 236 82C236 82 236.609 73.7007 236 62.5C235.391 51.2993 242.204 41.6979 252.5 41.5C250.743 38.3758 250.5 38.5 250 33.5C249.5 28.5 252.5 26 258.5 26C264.5 26 267 29 265.5 33.5C264 38 264 41.5 264 41.5C274.366 43.0984 279.712 47.5501 280 62.5C280.288 77.4499 280 82.5 280 82.5C278.242 84.5984 275.257 84.5139 273.5 82.5V62.5C272.911 58.1854 272.907 56.006 270 52.5C271.332 64.2161 271.808 70.784 270 82.5V143C267.266 146.092 262.733 146.417 260 143V88H256.5V143Z" fill="#FBF8F2" stroke="#FBF8F2"/>
<path d="M329.5 143C327.157 146.166 319.843 146.318 317.5 143V82.5C315.877 70.7848 315.927 64.2163 317.5 52.5C314.595 55.6889 314.061 57.3498 313.5 62V82C311.315 83.7632 309.527 84.0514 307 82C307 82 307.605 73.4401 307 62.5C306.395 51.5599 314.18 41.8927 324.5 41.5C322.743 38.3758 323.5 38.5 323 33.5C322.5 28.5 323.5 26 331.5 26C339.5 26 340 29 338.5 33.5C337 38 338 41.5 338 41.5C348.554 42.3579 355.25 45.5883 355 62.5C354.75 79.4117 355 82.5 355 82.5C353.242 84.5984 350.257 84.5139 348.5 82.5V62.5C347.911 58.1854 347.907 56.006 345 52.5C346.332 64.2161 346.808 70.784 345 82.5V143C342.266 146.092 335.733 146.417 333 143V88H329.5V143Z" fill="#737373" stroke="#737373"/>
<path d="M32 143C29.6572 146.166 29.8427 146.318 27.5 143C27.5 143 26.8803 90.7588 27.5 80C28.1197 69.2412 30.19 61.7244 29 51C26.8541 50.6506 22.2958 53.9218 21 62V82C18.8149 83.7632 19.0271 84.0514 16.5 82V62.5C16.5 54.5 22.4806 45.7829 32 41.5C30.2426 38.3758 28 38.5 27.5 33.5C27 28.5 32 26 36 26C40 26 45 29 43.5 33.5C42 38 39.5 41.5 39.5 41.5C48.974 46.1655 53.5 50 54.5 62.5C55.5 75 54.5 82.5 54.5 82.5C52.7423 84.5984 51.757 84.5139 50 82.5V62.5C49.9216 55.2887 42.9859 48.2558 42.5 51C42.0141 53.7442 43.6393 69.263 44.5 80C45.3607 90.737 44.5 143 44.5 143C41.7665 146.092 42.2335 146.417 39.5 143V88H32V143Z" fill="#FBF8F2" stroke="#FBF8F2"/>
<path d="M99.5 143C100.349 107.54 101.892 87.5099 99.5 52.5C96.5955 55.6889 96.0609 57.3498 95.5 62V82C93.3149 83.7632 92.5271 84.0514 90 82V62.5C90 54.5 95.9806 45.7829 105.5 41.5C103.743 38.3758 101 38 101 33.5C101 29 105.5 26 109.5 26C113.5 26 117.5 29 117 33.5C116.5 38 113 41.5 113 41.5C122.474 46.1655 127 50 128 62.5C129 75 128 82.5 128 82.5C126.242 84.5984 124.257 84.5139 122.5 82.5V62.5C121.911 58.1854 121.907 56.006 119 52.5C116.598 87.8424 118.02 107.657 119 143C116.266 146.092 114.733 146.417 112 143V88H106.5V143C104.157 146.166 101.843 146.318 99.5 143Z" fill="#FBF8F2" stroke="#FBF8F2"/>
<path d="M181.5 143C179.157 146.166 175.843 146.318 173.5 143V82C171.94 70.215 171.949 63.7443 173.5 52.5C170.596 55.6889 170.061 57.3498 169.5 62V82C167.315 83.7632 165.527 84.0514 163 82C163 82 163.154 71.9789 163 62.5C162.846 53.0211 169.8 44.042 179.5 41.5C177.743 38.3758 175.5 38.5 175 33.5C174.5 28.5 179.5 26 183.5 26C187.5 26 190.456 28.7758 191 33.5C191.544 38.2242 187.869 41.5954 187 41.5C196.546 44.6587 202.055 48.8527 203 62.5C203.945 76.1473 203 82.5 203 82.5C201.242 84.5984 198.257 84.5139 196.5 82.5V62.5C195.911 58.1854 195.907 56.006 193 52.5C194.546 64.0278 194.565 70.4712 193 82V143C190.267 146.092 187.734 146.417 185 143V88H181.5V143Z" fill="#FBF8F2" stroke="#FBF8F2"/>
<path d="M256.5 143C254.157 146.166 248.843 146.318 246.5 143V82.5C244.877 70.7848 244.927 64.2163 246.5 52.5C243.595 55.6889 243.061 57.3498 242.5 62V82C240.315 83.7632 238.527 84.0514 236 82C236 82 236.609 73.7007 236 62.5C235.391 51.2993 242.204 41.6979 252.5 41.5C250.743 38.3758 250.5 38.5 250 33.5C249.5 28.5 252.5 26 258.5 26C264.5 26 267 29 265.5 33.5C264 38 264 41.5 264 41.5C274.366 43.0984 279.712 47.5501 280 62.5C280.288 77.4499 280 82.5 280 82.5C278.242 84.5984 275.257 84.5139 273.5 82.5V62.5C272.911 58.1854 272.907 56.006 270 52.5C271.332 64.2161 271.808 70.784 270 82.5V143C267.266 146.092 262.733 146.417 260 143V88H256.5V143Z" fill="#FBF8F2" stroke="#FBF8F2"/>
<path d="M329.5 143C327.157 146.166 319.843 146.318 317.5 143V82.5C315.877 70.7848 315.927 64.2163 317.5 52.5C314.595 55.6889 314.061 57.3498 313.5 62V82C311.315 83.7632 309.527 84.0514 307 82C307 82 307.605 73.4401 307 62.5C306.395 51.5599 314.18 41.8927 324.5 41.5C322.743 38.3758 323.5 38.5 323 33.5C322.5 28.5 323.5 26 331.5 26C339.5 26 340 29 338.5 33.5C337 38 338 41.5 338 41.5C348.554 42.3579 355.25 45.5883 355 62.5C354.75 79.4117 355 82.5 355 82.5C353.242 84.5984 350.257 84.5139 348.5 82.5V62.5C347.911 58.1854 347.907 56.006 345 52.5C346.332 64.2161 346.808 70.784 345 82.5V143C342.266 146.092 335.733 146.417 333 143V88H329.5V143Z" fill="#737373" stroke="#737373"/>
<rect y="163" width="70" height="27" fill="#EBBC70"/>
<path d="M20.2695 177.162L24.3477 178.92V179.658L19.502 177.438V176.869L24.3477 174.654V175.393L20.2695 177.162ZM32.1758 181H31.4727V173.312L29.1523 174.174V173.518L32.0586 172.439H32.1758V181ZM40.5957 174.666C40.5957 175.107 40.4668 175.504 40.209 175.855C39.9512 176.203 39.6113 176.459 39.1895 176.623C39.6816 176.791 40.0762 177.062 40.373 177.438C40.6699 177.812 40.8184 178.246 40.8184 178.738C40.8184 179.469 40.5703 180.049 40.0742 180.479C39.5781 180.904 38.9219 181.117 38.1055 181.117C37.2812 181.117 36.6211 180.904 36.125 180.479C35.6328 180.053 35.3867 179.473 35.3867 178.738C35.3867 178.254 35.5293 177.822 35.8145 177.443C36.0996 177.064 36.4902 176.791 36.9863 176.623C36.5645 176.459 36.2285 176.203 35.9785 175.855C35.7285 175.504 35.6035 175.107 35.6035 174.666C35.6035 173.959 35.8301 173.396 36.2832 172.979C36.7402 172.561 37.3438 172.352 38.0938 172.352C38.8438 172.352 39.4473 172.562 39.9043 172.984C40.3652 173.406 40.5957 173.967 40.5957 174.666ZM40.1152 178.744C40.1152 178.213 39.9258 177.777 39.5469 177.438C39.168 177.094 38.6836 176.922 38.0938 176.922C37.5039 176.922 37.0215 177.09 36.6465 177.426C36.2715 177.762 36.084 178.201 36.084 178.744C36.084 179.287 36.2656 179.721 36.6289 180.045C36.9922 180.365 37.4844 180.525 38.1055 180.525C38.7109 180.525 39.1973 180.365 39.5645 180.045C39.9316 179.725 40.1152 179.291 40.1152 178.744ZM39.8926 174.66C39.8926 174.172 39.7227 173.766 39.3828 173.441C39.0469 173.113 38.6172 172.949 38.0938 172.949C37.5625 172.949 37.1309 173.107 36.7988 173.424C36.4707 173.736 36.3066 174.148 36.3066 174.66C36.3066 175.16 36.4707 175.562 36.7988 175.867C37.1309 176.172 37.5645 176.324 38.0996 176.324C38.627 176.324 39.0566 176.172 39.3887 175.867C39.7246 175.559 39.8926 175.156 39.8926 174.66ZM42.2715 180.578C42.2715 180.441 42.3145 180.326 42.4004 180.232C42.4902 180.135 42.6133 180.086 42.7695 180.086C42.9258 180.086 43.0488 180.135 43.1387 180.232C43.2285 180.326 43.2734 180.441 43.2734 180.578C43.2734 180.715 43.2285 180.828 43.1387 180.918C43.0488 181.004 42.9258 181.047 42.7695 181.047C42.6133 181.047 42.4902 181.004 42.4004 180.918C42.3145 180.828 42.2715 180.715 42.2715 180.578ZM45.5703 176.629L45.9863 172.469H50.252V173.119H46.5898L46.291 176.002C46.748 175.689 47.2832 175.533 47.8965 175.533C48.666 175.533 49.2793 175.783 49.7363 176.283C50.1934 176.783 50.4219 177.449 50.4219 178.281C50.4219 179.18 50.1992 179.877 49.7539 180.373C49.3086 180.869 48.6816 181.117 47.873 181.117C47.1309 181.117 46.5293 180.91 46.0684 180.496C45.6074 180.082 45.3438 179.502 45.2773 178.756H45.9512C46.0176 179.338 46.2148 179.779 46.543 180.08C46.8711 180.377 47.3145 180.525 47.873 180.525C48.4824 180.525 48.9414 180.332 49.25 179.945C49.5625 179.559 49.7188 179.008 49.7188 178.293C49.7188 177.668 49.5449 177.158 49.1973 176.764C48.8496 176.369 48.375 176.172 47.7734 176.172C47.4414 176.172 47.1523 176.215 46.9062 176.301C46.6602 176.383 46.4004 176.545 46.127 176.787L45.5703 176.629Z" fill="black"/>
<rect x="74" y="163" width="70" height="27" fill="#ADC674"/>
<path d="M85.5918 181H84.8887V173.312L82.5684 174.174V173.518L85.4746 172.439H85.5918V181ZM94.0117 174.666C94.0117 175.107 93.8828 175.504 93.625 175.855C93.3672 176.203 93.0273 176.459 92.6055 176.623C93.0977 176.791 93.4922 177.062 93.7891 177.438C94.0859 177.812 94.2344 178.246 94.2344 178.738C94.2344 179.469 93.9863 180.049 93.4902 180.479C92.9941 180.904 92.3379 181.117 91.5215 181.117C90.6973 181.117 90.0371 180.904 89.541 180.479C89.0488 180.053 88.8027 179.473 88.8027 178.738C88.8027 178.254 88.9453 177.822 89.2305 177.443C89.5156 177.064 89.9062 176.791 90.4023 176.623C89.9805 176.459 89.6445 176.203 89.3945 175.855C89.1445 175.504 89.0195 175.107 89.0195 174.666C89.0195 173.959 89.2461 173.396 89.6992 172.979C90.1562 172.561 90.7598 172.352 91.5098 172.352C92.2598 172.352 92.8633 172.562 93.3203 172.984C93.7812 173.406 94.0117 173.967 94.0117 174.666ZM93.5312 178.744C93.5312 178.213 93.3418 177.777 92.9629 177.438C92.584 177.094 92.0996 176.922 91.5098 176.922C90.9199 176.922 90.4375 177.09 90.0625 177.426C89.6875 177.762 89.5 178.201 89.5 178.744C89.5 179.287 89.6816 179.721 90.0449 180.045C90.4082 180.365 90.9004 180.525 91.5215 180.525C92.127 180.525 92.6133 180.365 92.9805 180.045C93.3477 179.725 93.5312 179.291 93.5312 178.744ZM93.3086 174.66C93.3086 174.172 93.1387 173.766 92.7988 173.441C92.4629 173.113 92.0332 172.949 91.5098 172.949C90.9785 172.949 90.5469 173.107 90.2148 173.424C89.8867 173.736 89.7227 174.148 89.7227 174.66C89.7227 175.16 89.8867 175.562 90.2148 175.867C90.5469 176.172 90.9805 176.324 91.5156 176.324C92.043 176.324 92.4727 176.172 92.8047 175.867C93.1406 175.559 93.3086 175.156 93.3086 174.66ZM95.6875 180.578C95.6875 180.441 95.7305 180.326 95.8164 180.232C95.9062 180.135 96.0293 180.086 96.1855 180.086C96.3418 180.086 96.4648 180.135 96.5547 180.232C96.6445 180.326 96.6895 180.441 96.6895 180.578C96.6895 180.715 96.6445 180.828 96.5547 180.918C96.4648 181.004 96.3418 181.047 96.1855 181.047C96.0293 181.047 95.9062 181.004 95.8164 180.918C95.7305 180.828 95.6875 180.715 95.6875 180.578ZM98.9863 176.629L99.4023 172.469H103.668V173.119H100.006L99.707 176.002C100.164 175.689 100.699 175.533 101.312 175.533C102.082 175.533 102.695 175.783 103.152 176.283C103.609 176.783 103.838 177.449 103.838 178.281C103.838 179.18 103.615 179.877 103.17 180.373C102.725 180.869 102.098 181.117 101.289 181.117C100.547 181.117 99.9453 180.91 99.4844 180.496C99.0234 180.082 98.7598 179.502 98.6934 178.756H99.3672C99.4336 179.338 99.6309 179.779 99.959 180.08C100.287 180.377 100.73 180.525 101.289 180.525C101.898 180.525 102.357 180.332 102.666 179.945C102.979 179.559 103.135 179.008 103.135 178.293C103.135 177.668 102.961 177.158 102.613 176.764C102.266 176.369 101.791 176.172 101.189 176.172C100.857 176.172 100.568 176.215 100.322 176.301C100.076 176.383 99.8164 176.545 99.543 176.787L98.9863 176.629ZM110.377 177.531H107.57V176.939H110.377V177.531ZM119.781 181H114.438V180.461L117.361 177.145C117.846 176.586 118.182 176.125 118.369 175.762C118.557 175.398 118.65 175.045 118.65 174.701C118.65 174.162 118.492 173.736 118.176 173.424C117.859 173.107 117.424 172.949 116.869 172.949C116.295 172.949 115.83 173.133 115.475 173.5C115.123 173.867 114.947 174.344 114.947 174.93H114.25C114.25 174.449 114.357 174.012 114.572 173.617C114.791 173.223 115.1 172.914 115.498 172.691C115.9 172.465 116.357 172.352 116.869 172.352C117.65 172.352 118.26 172.557 118.697 172.967C119.139 173.377 119.359 173.936 119.359 174.643C119.359 175.041 119.234 175.477 118.984 175.949C118.738 176.422 118.303 177.012 117.678 177.719L115.299 180.408H119.781V181ZM125.4 178.252H126.73V178.844H125.4V181H124.697V178.844H120.684V178.445L124.633 172.469H125.4V178.252ZM121.545 178.252H124.697V173.377L124.387 173.916L121.545 178.252ZM127.797 180.578C127.797 180.441 127.84 180.326 127.926 180.232C128.016 180.135 128.139 180.086 128.295 180.086C128.451 180.086 128.574 180.135 128.664 180.232C128.754 180.326 128.799 180.441 128.799 180.578C128.799 180.715 128.754 180.828 128.664 180.918C128.574 181.004 128.451 181.047 128.295 181.047C128.139 181.047 128.016 181.004 127.926 180.918C127.84 180.828 127.797 180.715 127.797 180.578ZM134.998 177.051C134.748 177.418 134.438 177.703 134.066 177.906C133.695 178.105 133.293 178.205 132.859 178.205C132.375 178.205 131.947 178.08 131.576 177.83C131.205 177.58 130.918 177.234 130.715 176.793C130.512 176.352 130.41 175.869 130.41 175.346C130.41 174.783 130.518 174.271 130.732 173.811C130.951 173.35 131.254 172.992 131.641 172.738C132.031 172.48 132.48 172.352 132.988 172.352C133.844 172.352 134.51 172.652 134.986 173.254C135.463 173.852 135.701 174.701 135.701 175.803V176.436C135.701 177.975 135.373 179.131 134.717 179.904C134.061 180.678 133.059 181.064 131.711 181.064H131.582L131.588 180.455H131.834C132.854 180.439 133.629 180.15 134.16 179.588C134.691 179.025 134.971 178.18 134.998 177.051ZM132.947 177.602C133.416 177.602 133.836 177.463 134.207 177.186C134.582 176.904 134.848 176.541 135.004 176.096V175.691C135.004 174.824 134.822 174.152 134.459 173.676C134.1 173.195 133.613 172.955 133 172.955C132.445 172.955 131.99 173.18 131.635 173.629C131.279 174.074 131.102 174.637 131.102 175.316C131.102 175.969 131.271 176.514 131.611 176.951C131.955 177.385 132.4 177.602 132.947 177.602Z" fill="black"/>
<rect x="148" y="163" width="70" height="27" fill="#ECAA7B"/>
<path d="M166.436 181H161.092V180.461L164.016 177.145C164.5 176.586 164.836 176.125 165.023 175.762C165.211 175.398 165.305 175.045 165.305 174.701C165.305 174.162 165.146 173.736 164.83 173.424C164.514 173.107 164.078 172.949 163.523 172.949C162.949 172.949 162.484 173.133 162.129 173.5C161.777 173.867 161.602 174.344 161.602 174.93H160.904C160.904 174.449 161.012 174.012 161.227 173.617C161.445 173.223 161.754 172.914 162.152 172.691C162.555 172.465 163.012 172.352 163.523 172.352C164.305 172.352 164.914 172.557 165.352 172.967C165.793 173.377 166.014 173.936 166.014 174.643C166.014 175.041 165.889 175.477 165.639 175.949C165.393 176.422 164.957 177.012 164.332 177.719L161.953 180.408H166.436V181ZM168.223 176.629L168.639 172.469H172.904V173.119H169.242L168.943 176.002C169.4 175.689 169.936 175.533 170.549 175.533C171.318 175.533 171.932 175.783 172.389 176.283C172.846 176.783 173.074 177.449 173.074 178.281C173.074 179.18 172.852 179.877 172.406 180.373C171.961 180.869 171.334 181.117 170.525 181.117C169.783 181.117 169.182 180.91 168.721 180.496C168.26 180.082 167.996 179.502 167.93 178.756H168.604C168.67 179.338 168.867 179.779 169.195 180.08C169.523 180.377 169.967 180.525 170.525 180.525C171.135 180.525 171.594 180.332 171.902 179.945C172.215 179.559 172.371 179.008 172.371 178.293C172.371 177.668 172.197 177.158 171.85 176.764C171.502 176.369 171.027 176.172 170.426 176.172C170.094 176.172 169.805 176.215 169.559 176.301C169.312 176.383 169.053 176.545 168.779 176.787L168.223 176.629ZM179.613 177.531H176.807V176.939H179.613V177.531ZM189.018 181H183.674V180.461L186.598 177.145C187.082 176.586 187.418 176.125 187.605 175.762C187.793 175.398 187.887 175.045 187.887 174.701C187.887 174.162 187.729 173.736 187.412 173.424C187.096 173.107 186.66 172.949 186.105 172.949C185.531 172.949 185.066 173.133 184.711 173.5C184.359 173.867 184.184 174.344 184.184 174.93H183.486C183.486 174.449 183.594 174.012 183.809 173.617C184.027 173.223 184.336 172.914 184.734 172.691C185.137 172.465 185.594 172.352 186.105 172.352C186.887 172.352 187.496 172.557 187.934 172.967C188.375 173.377 188.596 173.936 188.596 174.643C188.596 175.041 188.471 175.477 188.221 175.949C187.975 176.422 187.539 177.012 186.914 177.719L184.535 180.408H189.018V181ZM194.707 177.051C194.457 177.418 194.146 177.703 193.775 177.906C193.404 178.105 193.002 178.205 192.568 178.205C192.084 178.205 191.656 178.08 191.285 177.83C190.914 177.58 190.627 177.234 190.424 176.793C190.221 176.352 190.119 175.869 190.119 175.346C190.119 174.783 190.227 174.271 190.441 173.811C190.66 173.35 190.963 172.992 191.35 172.738C191.74 172.48 192.189 172.352 192.697 172.352C193.553 172.352 194.219 172.652 194.695 173.254C195.172 173.852 195.41 174.701 195.41 175.803V176.436C195.41 177.975 195.082 179.131 194.426 179.904C193.77 180.678 192.768 181.064 191.42 181.064H191.291L191.297 180.455H191.543C192.562 180.439 193.338 180.15 193.869 179.588C194.4 179.025 194.68 178.18 194.707 177.051ZM192.656 177.602C193.125 177.602 193.545 177.463 193.916 177.186C194.291 176.904 194.557 176.541 194.713 176.096V175.691C194.713 174.824 194.531 174.152 194.168 173.676C193.809 173.195 193.322 172.955 192.709 172.955C192.154 172.955 191.699 173.18 191.344 173.629C190.988 174.074 190.811 174.637 190.811 175.316C190.811 175.969 190.98 176.514 191.32 176.951C191.664 177.385 192.109 177.602 192.656 177.602ZM197.033 180.578C197.033 180.441 197.076 180.326 197.162 180.232C197.252 180.135 197.375 180.086 197.531 180.086C197.688 180.086 197.811 180.135 197.9 180.232C197.99 180.326 198.035 180.441 198.035 180.578C198.035 180.715 197.99 180.828 197.9 180.918C197.811 181.004 197.688 181.047 197.531 181.047C197.375 181.047 197.252 181.004 197.162 180.918C197.076 180.828 197.033 180.715 197.033 180.578ZM204.234 177.051C203.984 177.418 203.674 177.703 203.303 177.906C202.932 178.105 202.529 178.205 202.096 178.205C201.611 178.205 201.184 178.08 200.812 177.83C200.441 177.58 200.154 177.234 199.951 176.793C199.748 176.352 199.646 175.869 199.646 175.346C199.646 174.783 199.754 174.271 199.969 173.811C200.188 173.35 200.49 172.992 200.877 172.738C201.268 172.48 201.717 172.352 202.225 172.352C203.08 172.352 203.746 172.652 204.223 173.254C204.699 173.852 204.938 174.701 204.938 175.803V176.436C204.938 177.975 204.609 179.131 203.953 179.904C203.297 180.678 202.295 181.064 200.947 181.064H200.818L200.824 180.455H201.07C202.09 180.439 202.865 180.15 203.396 179.588C203.928 179.025 204.207 178.18 204.234 177.051ZM202.184 177.602C202.652 177.602 203.072 177.463 203.443 177.186C203.818 176.904 204.084 176.541 204.24 176.096V175.691C204.24 174.824 204.059 174.152 203.695 173.676C203.336 173.195 202.85 172.955 202.236 172.955C201.682 172.955 201.227 173.18 200.871 173.629C200.516 174.074 200.338 174.637 200.338 175.316C200.338 175.969 200.508 176.514 200.848 176.951C201.191 177.385 201.637 177.602 202.184 177.602Z" fill="black"/>
<rect x="222" y="163" width="70" height="27" fill="#E68C5F"/>
<path d="M236.65 176.354H237.377C237.779 176.354 238.131 176.283 238.432 176.143C238.732 175.998 238.961 175.803 239.117 175.557C239.277 175.307 239.357 175.02 239.357 174.695C239.357 174.148 239.203 173.721 238.895 173.412C238.586 173.104 238.143 172.949 237.564 172.949C237.018 172.949 236.568 173.111 236.217 173.436C235.869 173.756 235.695 174.18 235.695 174.707H234.992C234.992 174.266 235.104 173.863 235.326 173.5C235.549 173.133 235.857 172.85 236.252 172.65C236.646 172.451 237.084 172.352 237.564 172.352C238.338 172.352 238.947 172.562 239.393 172.984C239.838 173.406 240.061 173.984 240.061 174.719C240.061 175.129 239.93 175.508 239.668 175.855C239.41 176.199 239.055 176.457 238.602 176.629C239.133 176.777 239.535 177.033 239.809 177.396C240.082 177.756 240.219 178.186 240.219 178.686C240.219 179.416 239.98 180.004 239.504 180.449C239.027 180.895 238.391 181.117 237.594 181.117C237.086 181.117 236.619 181.016 236.193 180.812C235.771 180.609 235.443 180.326 235.209 179.963C234.979 179.596 234.863 179.17 234.863 178.686H235.566C235.566 179.229 235.756 179.672 236.135 180.016C236.514 180.355 237 180.525 237.594 180.525C238.199 180.525 238.67 180.371 239.006 180.062C239.346 179.75 239.516 179.299 239.516 178.709C239.516 178.139 239.332 177.703 238.965 177.402C238.602 177.102 238.064 176.951 237.354 176.951H236.65V176.354ZM246.893 177.443C246.893 178.646 246.672 179.561 246.23 180.186C245.789 180.807 245.139 181.117 244.279 181.117C243.436 181.117 242.789 180.812 242.34 180.203C241.891 179.59 241.66 178.699 241.648 177.531V176.002C241.648 174.803 241.871 173.895 242.316 173.277C242.762 172.66 243.412 172.352 244.268 172.352C245.111 172.352 245.756 172.65 246.201 173.248C246.646 173.842 246.877 174.719 246.893 175.879V177.443ZM246.189 175.914C246.189 174.938 246.029 174.199 245.709 173.699C245.393 173.199 244.912 172.949 244.268 172.949C243.635 172.949 243.158 173.193 242.838 173.682C242.518 174.17 242.354 174.891 242.346 175.844V177.52C242.346 178.492 242.51 179.236 242.838 179.752C243.17 180.268 243.65 180.525 244.279 180.525C244.904 180.525 245.377 180.273 245.697 179.77C246.021 179.266 246.186 178.527 246.189 177.555V175.914ZM253.613 177.531H250.807V176.939H253.613V177.531ZM259.232 176.354H259.959C260.361 176.354 260.713 176.283 261.014 176.143C261.314 175.998 261.543 175.803 261.699 175.557C261.859 175.307 261.939 175.02 261.939 174.695C261.939 174.148 261.785 173.721 261.477 173.412C261.168 173.104 260.725 172.949 260.146 172.949C259.6 172.949 259.15 173.111 258.799 173.436C258.451 173.756 258.277 174.18 258.277 174.707H257.574C257.574 174.266 257.686 173.863 257.908 173.5C258.131 173.133 258.439 172.85 258.834 172.65C259.229 172.451 259.666 172.352 260.146 172.352C260.92 172.352 261.529 172.562 261.975 172.984C262.42 173.406 262.643 173.984 262.643 174.719C262.643 175.129 262.512 175.508 262.25 175.855C261.992 176.199 261.637 176.457 261.184 176.629C261.715 176.777 262.117 177.033 262.391 177.396C262.664 177.756 262.801 178.186 262.801 178.686C262.801 179.416 262.562 180.004 262.086 180.449C261.609 180.895 260.973 181.117 260.176 181.117C259.668 181.117 259.201 181.016 258.775 180.812C258.354 180.609 258.025 180.326 257.791 179.963C257.561 179.596 257.445 179.17 257.445 178.686H258.148C258.148 179.229 258.338 179.672 258.717 180.016C259.096 180.355 259.582 180.525 260.176 180.525C260.781 180.525 261.252 180.371 261.588 180.062C261.928 179.75 262.098 179.299 262.098 178.709C262.098 178.139 261.914 177.703 261.547 177.402C261.184 177.102 260.646 176.951 259.936 176.951H259.232V176.354ZM268.637 178.252H269.967V178.844H268.637V181H267.934V178.844H263.92V178.445L267.869 172.469H268.637V178.252ZM264.781 178.252H267.934V173.377L267.623 173.916L264.781 178.252ZM271.033 180.578C271.033 180.441 271.076 180.326 271.162 180.232C271.252 180.135 271.375 180.086 271.531 180.086C271.688 180.086 271.811 180.135 271.9 180.232C271.99 180.326 272.035 180.441 272.035 180.578C272.035 180.715 271.99 180.828 271.9 180.918C271.811 181.004 271.688 181.047 271.531 181.047C271.375 181.047 271.252 181.004 271.162 180.918C271.076 180.828 271.033 180.715 271.033 180.578ZM278.234 177.051C277.984 177.418 277.674 177.703 277.303 177.906C276.932 178.105 276.529 178.205 276.096 178.205C275.611 178.205 275.184 178.08 274.812 177.83C274.441 177.58 274.154 177.234 273.951 176.793C273.748 176.352 273.646 175.869 273.646 175.346C273.646 174.783 273.754 174.271 273.969 173.811C274.188 173.35 274.49 172.992 274.877 172.738C275.268 172.48 275.717 172.352 276.225 172.352C277.08 172.352 277.746 172.652 278.223 173.254C278.699 173.852 278.938 174.701 278.938 175.803V176.436C278.938 177.975 278.609 179.131 277.953 179.904C277.297 180.678 276.295 181.064 274.947 181.064H274.818L274.824 180.455H275.07C276.09 180.439 276.865 180.15 277.396 179.588C277.928 179.025 278.207 178.18 278.234 177.051ZM276.184 177.602C276.652 177.602 277.072 177.463 277.443 177.186C277.818 176.904 278.084 176.541 278.24 176.096V175.691C278.24 174.824 278.059 174.152 277.695 173.676C277.336 173.195 276.85 172.955 276.236 172.955C275.682 172.955 275.227 173.18 274.871 173.629C274.516 174.074 274.338 174.637 274.338 175.316C274.338 175.969 274.508 176.514 274.848 176.951C275.191 177.385 275.637 177.602 276.184 177.602Z" fill="black"/>
<rect x="296" y="163" width="70" height="27" fill="#DC7356"/>
<path d="M324.666 177.139L320.5 175.363V174.643L325.451 176.857V177.426L320.5 179.646V178.92L324.666 177.139ZM331.275 176.354H332.002C332.404 176.354 332.756 176.283 333.057 176.143C333.357 175.998 333.586 175.803 333.742 175.557C333.902 175.307 333.982 175.02 333.982 174.695C333.982 174.148 333.828 173.721 333.52 173.412C333.211 173.104 332.768 172.949 332.189 172.949C331.643 172.949 331.193 173.111 330.842 173.436C330.494 173.756 330.32 174.18 330.32 174.707H329.617C329.617 174.266 329.729 173.863 329.951 173.5C330.174 173.133 330.482 172.85 330.877 172.65C331.271 172.451 331.709 172.352 332.189 172.352C332.963 172.352 333.572 172.562 334.018 172.984C334.463 173.406 334.686 173.984 334.686 174.719C334.686 175.129 334.555 175.508 334.293 175.855C334.035 176.199 333.68 176.457 333.227 176.629C333.758 176.777 334.16 177.033 334.434 177.396C334.707 177.756 334.844 178.186 334.844 178.686C334.844 179.416 334.605 180.004 334.129 180.449C333.652 180.895 333.016 181.117 332.219 181.117C331.711 181.117 331.244 181.016 330.818 180.812C330.396 180.609 330.068 180.326 329.834 179.963C329.604 179.596 329.488 179.17 329.488 178.686H330.191C330.191 179.229 330.381 179.672 330.76 180.016C331.139 180.355 331.625 180.525 332.219 180.525C332.824 180.525 333.295 180.371 333.631 180.062C333.971 179.75 334.141 179.299 334.141 178.709C334.141 178.139 333.957 177.703 333.59 177.402C333.227 177.102 332.689 176.951 331.979 176.951H331.275V176.354ZM336.848 176.629L337.264 172.469H341.529V173.119H337.867L337.568 176.002C338.025 175.689 338.561 175.533 339.174 175.533C339.943 175.533 340.557 175.783 341.014 176.283C341.471 176.783 341.699 177.449 341.699 178.281C341.699 179.18 341.477 179.877 341.031 180.373C340.586 180.869 339.959 181.117 339.15 181.117C338.408 181.117 337.807 180.91 337.346 180.496C336.885 180.082 336.621 179.502 336.555 178.756H337.229C337.295 179.338 337.492 179.779 337.82 180.08C338.148 180.377 338.592 180.525 339.15 180.525C339.76 180.525 340.219 180.332 340.527 179.945C340.84 179.559 340.996 179.008 340.996 178.293C340.996 177.668 340.822 177.158 340.475 176.764C340.127 176.369 339.652 176.172 339.051 176.172C338.719 176.172 338.43 176.215 338.184 176.301C337.938 176.383 337.678 176.545 337.404 176.787L336.848 176.629Z" fill="black"/>
<path d="M12.3784 2.17969V7.51855C12.3748 8.04492 12.2585 8.50326 12.0293 8.89355C11.8001 9.28385 11.4761 9.58464 11.0571 9.7959C10.6418 10.0036 10.1637 10.1074 9.62305 10.1074C8.79948 10.1074 8.13883 9.88363 7.64111 9.43604C7.14697 8.98486 6.89095 8.36182 6.87305 7.56689V2.17969H7.52832V7.47021C7.52832 8.12907 7.71631 8.64111 8.09229 9.00635C8.46826 9.368 8.97852 9.54883 9.62305 9.54883C10.2676 9.54883 10.776 9.36621 11.1484 9.00098C11.5244 8.63574 11.7124 8.12728 11.7124 7.47559V2.17969H12.3784ZM14.6826 4.18848L14.7041 5.18213C14.9225 4.82406 15.1947 4.55192 15.5205 4.36572C15.8464 4.17594 16.2062 4.08105 16.6001 4.08105C17.2231 4.08105 17.6868 4.25651 17.9912 4.60742C18.2956 4.95833 18.4495 5.4847 18.4531 6.18652V10H17.814V6.18115C17.8104 5.66195 17.6994 5.27523 17.481 5.021C17.2661 4.76676 16.9206 4.63965 16.4443 4.63965C16.0469 4.63965 15.6942 4.76497 15.3862 5.01562C15.0819 5.2627 14.8563 5.59749 14.7095 6.02002V10H14.0703V4.18848H14.6826ZM19.8604 7.04053C19.8604 6.13818 20.0609 5.42025 20.4619 4.88672C20.8665 4.34961 21.4144 4.08105 22.1055 4.08105C22.8896 4.08105 23.4876 4.39079 23.8994 5.01025V1.75H24.5386V10H23.937L23.9102 9.22656C23.4984 9.8138 22.8932 10.1074 22.0947 10.1074C21.4251 10.1074 20.8844 9.83887 20.4727 9.30176C20.0645 8.76107 19.8604 8.03239 19.8604 7.11572V7.04053ZM20.5103 7.15332C20.5103 7.89453 20.6589 8.47998 20.9561 8.90967C21.2533 9.33577 21.6722 9.54883 22.2129 9.54883C23.0042 9.54883 23.5664 9.19971 23.8994 8.50146V5.77295C23.5664 5.01742 23.0078 4.63965 22.2236 4.63965C21.6829 4.63965 21.2622 4.8527 20.9614 5.27881C20.6606 5.70133 20.5103 6.32617 20.5103 7.15332ZM28.481 10.1074C27.9868 10.1074 27.5392 9.98568 27.1382 9.74219C26.7407 9.4987 26.431 9.16032 26.209 8.72705C25.987 8.2902 25.876 7.80143 25.876 7.26074V7.02979C25.876 6.47119 25.9834 5.9681 26.1982 5.52051C26.4167 5.07292 26.7192 4.72201 27.106 4.46777C27.4927 4.20996 27.9116 4.08105 28.3628 4.08105C29.0682 4.08105 29.6268 4.32275 30.0386 4.80615C30.4539 5.28597 30.6616 5.94303 30.6616 6.77734V7.13721H26.5151V7.26074C26.5151 7.9196 26.7031 8.46924 27.0791 8.90967C27.4587 9.34652 27.9349 9.56494 28.5078 9.56494C28.8516 9.56494 29.1541 9.50228 29.4155 9.37695C29.6805 9.25163 29.9204 9.05111 30.1353 8.77539L30.5381 9.08154C30.0654 9.76546 29.3797 10.1074 28.481 10.1074ZM28.3628 4.62891C27.8794 4.62891 27.4712 4.80615 27.1382 5.16064C26.8088 5.51514 26.6082 5.99137 26.5366 6.58936H30.0225V6.51953C30.0046 5.96094 29.8452 5.50618 29.5444 5.15527C29.2437 4.80436 28.8498 4.62891 28.3628 4.62891ZM34.5986 4.73633C34.4626 4.71126 34.3175 4.69873 34.1636 4.69873C33.7625 4.69873 33.4224 4.81152 33.1431 5.03711C32.8674 5.25911 32.6704 5.58317 32.5522 6.00928V10H31.9131V4.18848H32.5415L32.5522 5.1123C32.8924 4.4248 33.4385 4.08105 34.1904 4.08105C34.3695 4.08105 34.5109 4.10433 34.6147 4.15088L34.5986 4.73633ZM37.1069 8.6626L37.2036 9.16211L37.3325 8.63574L38.729 4.18848H39.2769L40.6572 8.59814L40.8076 9.21045L40.9312 8.64648L42.1235 4.18848H42.7896L41.0977 10H40.5498L39.0566 5.3916L38.9868 5.07471L38.917 5.39697L37.4507 10H36.9028L35.2163 4.18848H35.877L37.1069 8.6626ZM46.2593 10.1074C45.7651 10.1074 45.3175 9.98568 44.9165 9.74219C44.519 9.4987 44.2093 9.16032 43.9873 8.72705C43.7653 8.2902 43.6543 7.80143 43.6543 7.26074V7.02979C43.6543 6.47119 43.7617 5.9681 43.9766 5.52051C44.195 5.07292 44.4976 4.72201 44.8843 4.46777C45.271 4.20996 45.6899 4.08105 46.1411 4.08105C46.8465 4.08105 47.4051 4.32275 47.8169 4.80615C48.2323 5.28597 48.4399 5.94303 48.4399 6.77734V7.13721H44.2935V7.26074C44.2935 7.9196 44.4814 8.46924 44.8574 8.90967C45.237 9.34652 45.7132 9.56494 46.2861 9.56494C46.6299 9.56494 46.9325 9.50228 47.1938 9.37695C47.4588 9.25163 47.6987 9.05111 47.9136 8.77539L48.3164 9.08154C47.8438 9.76546 47.158 10.1074 46.2593 10.1074ZM46.1411 4.62891C45.6577 4.62891 45.2495 4.80615 44.9165 5.16064C44.5871 5.51514 44.3866 5.99137 44.3149 6.58936H47.8008V6.51953C47.7829 5.96094 47.6235 5.50618 47.3228 5.15527C47.022 4.80436 46.6281 4.62891 46.1411 4.62891ZM50.4111 10H49.7666V4.18848H50.4111V10ZM49.6538 2.50732C49.6538 2.38558 49.6932 2.28353 49.772 2.20117C49.8507 2.11523 49.9582 2.07227 50.0942 2.07227C50.2303 2.07227 50.3377 2.11523 50.4165 2.20117C50.4989 2.28353 50.54 2.38558 50.54 2.50732C50.54 2.62907 50.4989 2.73112 50.4165 2.81348C50.3377 2.89583 50.2303 2.93701 50.0942 2.93701C49.9582 2.93701 49.8507 2.89583 49.772 2.81348C49.6932 2.73112 49.6538 2.62907 49.6538 2.50732ZM51.9043 7.04053C51.9043 6.13102 52.1048 5.4113 52.5059 4.88135C52.9105 4.34782 53.4583 4.08105 54.1494 4.08105C54.9408 4.08105 55.5423 4.39616 55.9541 5.02637L55.9863 4.18848H56.5879V9.88184C56.5879 10.6302 56.3784 11.2228 55.9595 11.6597C55.5405 12.0965 54.973 12.3149 54.2568 12.3149C53.8522 12.3149 53.4655 12.2236 53.0967 12.041C52.7314 11.862 52.4432 11.6221 52.2319 11.3213L52.5918 10.9346C53.0465 11.4932 53.5872 11.7725 54.2139 11.7725C54.751 11.7725 55.1699 11.6131 55.4707 11.2944C55.7715 10.9793 55.9272 10.5407 55.938 9.97852V9.24805C55.5262 9.82096 54.9264 10.1074 54.1387 10.1074C53.4655 10.1074 52.9248 9.83887 52.5166 9.30176C52.1084 8.76465 51.9043 8.03955 51.9043 7.12646V7.04053ZM52.5542 7.15332C52.5542 7.89453 52.7028 8.47998 53 8.90967C53.2972 9.33577 53.7161 9.54883 54.2568 9.54883C55.0482 9.54883 55.6086 9.19434 55.938 8.48535V5.78369C55.7876 5.4113 55.571 5.12842 55.2881 4.93506C55.0052 4.73812 54.665 4.63965 54.2676 4.63965C53.7269 4.63965 53.3062 4.8527 53.0054 5.27881C52.7046 5.70133 52.5542 6.32617 52.5542 7.15332ZM58.9028 5.17139C59.1141 4.82406 59.3844 4.5555 59.7139 4.36572C60.0433 4.17594 60.4032 4.08105 60.7935 4.08105C61.4165 4.08105 61.8802 4.25651 62.1846 4.60742C62.4889 4.95833 62.6429 5.4847 62.6465 6.18652V10H62.0073V6.18115C62.0037 5.66195 61.8927 5.27523 61.6743 5.021C61.4595 4.76676 61.1139 4.63965 60.6377 4.63965C60.2402 4.63965 59.8875 4.76497 59.5796 5.01562C59.2752 5.2627 59.0496 5.59749 58.9028 6.02002V10H58.2637V1.75H58.9028V5.17139ZM65.2998 2.70068V4.18848H66.5029V4.71484H65.2998V8.5874C65.2998 8.90967 65.3571 9.14958 65.4717 9.30713C65.5898 9.46468 65.785 9.54346 66.0571 9.54346C66.1646 9.54346 66.3382 9.52555 66.5781 9.48975L66.605 10.0161C66.4367 10.077 66.2075 10.1074 65.9175 10.1074C65.4771 10.1074 65.1566 9.98031 64.9561 9.72607C64.7555 9.46826 64.6553 9.09049 64.6553 8.59277V4.71484H63.5864V4.18848H64.6553V2.70068H65.2998Z" fill="black"/>
<path d="M97.9087 10H97.248L92.7524 3.30762V10H92.0864V2.17969H92.7524L97.2534 8.87744V2.17969H97.9087V10ZM99.3911 7.0083C99.3911 6.44971 99.4985 5.94661 99.7134 5.49902C99.9318 5.05143 100.238 4.7041 100.632 4.45703C101.029 4.20638 101.479 4.08105 101.98 4.08105C102.753 4.08105 103.38 4.35319 103.86 4.89746C104.34 5.43815 104.58 6.15609 104.58 7.05127V7.18555C104.58 7.74772 104.47 8.25439 104.252 8.70557C104.037 9.15316 103.733 9.4987 103.339 9.74219C102.945 9.98568 102.496 10.1074 101.991 10.1074C101.221 10.1074 100.594 9.83708 100.111 9.29639C99.631 8.75212 99.3911 8.03239 99.3911 7.13721V7.0083ZM100.036 7.18555C100.036 7.88021 100.215 8.45133 100.573 8.89893C100.934 9.34294 101.407 9.56494 101.991 9.56494C102.571 9.56494 103.04 9.34294 103.398 8.89893C103.76 8.45133 103.94 7.8623 103.94 7.13184V7.0083C103.94 6.56429 103.858 6.15788 103.693 5.78906C103.529 5.42025 103.298 5.13558 103 4.93506C102.703 4.73096 102.363 4.62891 101.98 4.62891C101.407 4.62891 100.94 4.85449 100.578 5.30566C100.216 5.75326 100.036 6.34049 100.036 7.06738V7.18555ZM108.597 4.73633C108.461 4.71126 108.316 4.69873 108.162 4.69873C107.761 4.69873 107.421 4.81152 107.142 5.03711C106.866 5.25911 106.669 5.58317 106.551 6.00928V10H105.912V4.18848H106.54L106.551 5.1123C106.891 4.4248 107.437 4.08105 108.189 4.08105C108.368 4.08105 108.509 4.10433 108.613 4.15088L108.597 4.73633ZM110.203 4.18848L110.225 5.13379C110.439 4.78288 110.708 4.51969 111.03 4.34424C111.353 4.16878 111.711 4.08105 112.104 4.08105C113.021 4.08105 113.603 4.45703 113.85 5.20898C114.058 4.84733 114.335 4.56982 114.683 4.37646C115.03 4.17952 115.413 4.08105 115.832 4.08105C117.078 4.08105 117.714 4.76139 117.739 6.12207V10H117.094V6.17041C117.091 5.6512 116.978 5.26628 116.756 5.01562C116.537 4.76497 116.179 4.63965 115.682 4.63965C115.22 4.64681 114.829 4.7972 114.511 5.09082C114.192 5.38086 114.015 5.73535 113.979 6.1543V10H113.334V6.12207C113.331 5.62435 113.213 5.25374 112.98 5.01025C112.751 4.76318 112.396 4.63965 111.917 4.63965C111.512 4.63965 111.165 4.75602 110.875 4.98877C110.584 5.21794 110.37 5.5599 110.23 6.01465V10H109.585V4.18848H110.203ZM123.04 10C122.976 9.81738 122.934 9.54704 122.917 9.18896C122.691 9.48258 122.403 9.70996 122.052 9.87109C121.704 10.0286 121.336 10.1074 120.945 10.1074C120.387 10.1074 119.934 9.95166 119.586 9.64014C119.243 9.32861 119.071 8.93473 119.071 8.4585C119.071 7.89274 119.305 7.44515 119.774 7.11572C120.247 6.7863 120.904 6.62158 121.746 6.62158H122.911V5.96094C122.911 5.54557 122.782 5.21973 122.524 4.9834C122.27 4.74349 121.898 4.62354 121.407 4.62354C120.96 4.62354 120.589 4.73812 120.295 4.96729C120.002 5.19645 119.855 5.47217 119.855 5.79443L119.21 5.78906C119.21 5.32715 119.425 4.9279 119.855 4.59131C120.285 4.25114 120.813 4.08105 121.439 4.08105C122.088 4.08105 122.598 4.24398 122.97 4.56982C123.346 4.89209 123.54 5.34326 123.55 5.92334V8.67334C123.55 9.23551 123.609 9.65625 123.728 9.93555V10H123.04ZM121.021 9.53809C121.45 9.53809 121.833 9.43424 122.17 9.22656C122.51 9.01888 122.757 8.74137 122.911 8.39404V7.11572H121.762C121.121 7.12288 120.619 7.24105 120.258 7.47021C119.896 7.6958 119.715 8.00732 119.715 8.40479C119.715 8.73063 119.835 9.00098 120.075 9.21582C120.319 9.43066 120.634 9.53809 121.021 9.53809ZM125.989 10H125.344V1.75H125.989V10Z" fill="black"/>
<path d="M163.133 6.51416C163.133 7.23389 163.007 7.86589 162.757 8.41016C162.51 8.95443 162.155 9.37337 161.693 9.66699C161.231 9.96061 160.698 10.1074 160.093 10.1074C159.18 10.1074 158.442 9.78158 157.88 9.12988C157.318 8.47461 157.037 7.59196 157.037 6.48193V5.67627C157.037 4.9637 157.162 4.3335 157.413 3.78564C157.667 3.23421 158.025 2.81169 158.487 2.51807C158.949 2.22087 159.48 2.07227 160.082 2.07227C160.684 2.07227 161.214 2.21729 161.672 2.50732C162.134 2.79736 162.49 3.20736 162.741 3.7373C162.991 4.26725 163.122 4.88135 163.133 5.57959V6.51416ZM162.472 5.66553C162.472 4.7238 162.259 3.98617 161.833 3.45264C161.407 2.91911 160.823 2.65234 160.082 2.65234C159.355 2.65234 158.775 2.9209 158.342 3.45801C157.912 3.99154 157.697 4.73812 157.697 5.69775V6.51416C157.697 7.44157 157.912 8.17741 158.342 8.72168C158.771 9.26237 159.355 9.53271 160.093 9.53271C160.841 9.53271 161.425 9.26595 161.844 8.73242C162.263 8.19531 162.472 7.44873 162.472 6.49268V5.66553ZM166.458 9.11377L168.225 4.18848H168.885L166.715 10H166.194L164.014 4.18848H164.674L166.458 9.11377ZM172.119 10.1074C171.625 10.1074 171.177 9.98568 170.776 9.74219C170.378 9.4987 170.069 9.16032 169.847 8.72705C169.625 8.2902 169.514 7.80143 169.514 7.26074V7.02979C169.514 6.47119 169.621 5.9681 169.836 5.52051C170.054 5.07292 170.357 4.72201 170.744 4.46777C171.13 4.20996 171.549 4.08105 172 4.08105C172.706 4.08105 173.264 4.32275 173.676 4.80615C174.092 5.28597 174.299 5.94303 174.299 6.77734V7.13721H170.153V7.26074C170.153 7.9196 170.341 8.46924 170.717 8.90967C171.096 9.34652 171.573 9.56494 172.146 9.56494C172.489 9.56494 172.792 9.50228 173.053 9.37695C173.318 9.25163 173.558 9.05111 173.773 8.77539L174.176 9.08154C173.703 9.76546 173.017 10.1074 172.119 10.1074ZM172 4.62891C171.517 4.62891 171.109 4.80615 170.776 5.16064C170.446 5.51514 170.246 5.99137 170.174 6.58936H173.66V6.51953C173.642 5.96094 173.483 5.50618 173.182 5.15527C172.881 4.80436 172.487 4.62891 172 4.62891ZM178.236 4.73633C178.1 4.71126 177.955 4.69873 177.801 4.69873C177.4 4.69873 177.06 4.81152 176.781 5.03711C176.505 5.25911 176.308 5.58317 176.19 6.00928V10H175.551V4.18848H176.179L176.19 5.1123C176.53 4.4248 177.076 4.08105 177.828 4.08105C178.007 4.08105 178.149 4.10433 178.252 4.15088L178.236 4.73633ZM180.745 8.6626L180.841 9.16211L180.97 8.63574L182.367 4.18848H182.915L184.295 8.59814L184.445 9.21045L184.569 8.64648L185.761 4.18848H186.427L184.735 10H184.188L182.694 5.3916L182.625 5.07471L182.555 5.39697L181.088 10H180.541L178.854 4.18848H179.515L180.745 8.6626ZM189.897 10.1074C189.403 10.1074 188.955 9.98568 188.554 9.74219C188.157 9.4987 187.847 9.16032 187.625 8.72705C187.403 8.2902 187.292 7.80143 187.292 7.26074V7.02979C187.292 6.47119 187.399 5.9681 187.614 5.52051C187.833 5.07292 188.135 4.72201 188.522 4.46777C188.909 4.20996 189.328 4.08105 189.779 4.08105C190.484 4.08105 191.043 4.32275 191.455 4.80615C191.87 5.28597 192.078 5.94303 192.078 6.77734V7.13721H187.931V7.26074C187.931 7.9196 188.119 8.46924 188.495 8.90967C188.875 9.34652 189.351 9.56494 189.924 9.56494C190.268 9.56494 190.57 9.50228 190.832 9.37695C191.097 9.25163 191.336 9.05111 191.551 8.77539L191.954 9.08154C191.481 9.76546 190.796 10.1074 189.897 10.1074ZM189.779 4.62891C189.295 4.62891 188.887 4.80615 188.554 5.16064C188.225 5.51514 188.024 5.99137 187.953 6.58936H191.438V6.51953C191.421 5.96094 191.261 5.50618 190.96 5.15527C190.66 4.80436 190.266 4.62891 189.779 4.62891ZM194.049 10H193.404V4.18848H194.049V10ZM193.292 2.50732C193.292 2.38558 193.331 2.28353 193.41 2.20117C193.488 2.11523 193.596 2.07227 193.732 2.07227C193.868 2.07227 193.975 2.11523 194.054 2.20117C194.137 2.28353 194.178 2.38558 194.178 2.50732C194.178 2.62907 194.137 2.73112 194.054 2.81348C193.975 2.89583 193.868 2.93701 193.732 2.93701C193.596 2.93701 193.488 2.89583 193.41 2.81348C193.331 2.73112 193.292 2.62907 193.292 2.50732ZM195.542 7.04053C195.542 6.13102 195.743 5.4113 196.144 4.88135C196.548 4.34782 197.096 4.08105 197.787 4.08105C198.578 4.08105 199.18 4.39616 199.592 5.02637L199.624 4.18848H200.226V9.88184C200.226 10.6302 200.016 11.2228 199.597 11.6597C199.178 12.0965 198.611 12.3149 197.895 12.3149C197.49 12.3149 197.103 12.2236 196.734 12.041C196.369 11.862 196.081 11.6221 195.87 11.3213L196.229 10.9346C196.684 11.4932 197.225 11.7725 197.852 11.7725C198.389 11.7725 198.808 11.6131 199.108 11.2944C199.409 10.9793 199.565 10.5407 199.576 9.97852V9.24805C199.164 9.82096 198.564 10.1074 197.776 10.1074C197.103 10.1074 196.562 9.83887 196.154 9.30176C195.746 8.76465 195.542 8.03955 195.542 7.12646V7.04053ZM196.192 7.15332C196.192 7.89453 196.34 8.47998 196.638 8.90967C196.935 9.33577 197.354 9.54883 197.895 9.54883C198.686 9.54883 199.246 9.19434 199.576 8.48535V5.78369C199.425 5.4113 199.209 5.12842 198.926 4.93506C198.643 4.73812 198.303 4.63965 197.905 4.63965C197.365 4.63965 196.944 4.8527 196.643 5.27881C196.342 5.70133 196.192 6.32617 196.192 7.15332ZM202.541 5.17139C202.752 4.82406 203.022 4.5555 203.352 4.36572C203.681 4.17594 204.041 4.08105 204.431 4.08105C205.054 4.08105 205.518 4.25651 205.822 4.60742C206.127 4.95833 206.281 5.4847 206.284 6.18652V10H205.645V6.18115C205.641 5.66195 205.53 5.27523 205.312 5.021C205.097 4.76676 204.752 4.63965 204.275 4.63965C203.878 4.63965 203.525 4.76497 203.217 5.01562C202.913 5.2627 202.687 5.59749 202.541 6.02002V10H201.901V1.75H202.541V5.17139ZM208.938 2.70068V4.18848H210.141V4.71484H208.938V8.5874C208.938 8.90967 208.995 9.14958 209.109 9.30713C209.228 9.46468 209.423 9.54346 209.695 9.54346C209.802 9.54346 209.976 9.52555 210.216 9.48975L210.243 10.0161C210.074 10.077 209.845 10.1074 209.555 10.1074C209.115 10.1074 208.794 9.98031 208.594 9.72607C208.393 9.46826 208.293 9.09049 208.293 8.59277V4.71484H207.224V4.18848H208.293V2.70068H208.938Z" fill="black"/>
<path d="M250.024 6.51416C250.024 7.23389 249.899 7.86589 249.648 8.41016C249.401 8.95443 249.047 9.37337 248.585 9.66699C248.123 9.96061 247.59 10.1074 246.984 10.1074C246.071 10.1074 245.334 9.78158 244.771 9.12988C244.209 8.47461 243.928 7.59196 243.928 6.48193V5.67627C243.928 4.9637 244.054 4.3335 244.304 3.78564C244.558 3.23421 244.917 2.81169 245.378 2.51807C245.84 2.22087 246.372 2.07227 246.974 2.07227C247.575 2.07227 248.105 2.21729 248.563 2.50732C249.025 2.79736 249.382 3.20736 249.632 3.7373C249.883 4.26725 250.014 4.88135 250.024 5.57959V6.51416ZM249.364 5.66553C249.364 4.7238 249.151 3.98617 248.725 3.45264C248.299 2.91911 247.715 2.65234 246.974 2.65234C246.247 2.65234 245.667 2.9209 245.233 3.45801C244.804 3.99154 244.589 4.73812 244.589 5.69775V6.51416C244.589 7.44157 244.804 8.17741 245.233 8.72168C245.663 9.26237 246.247 9.53271 246.984 9.53271C247.733 9.53271 248.316 9.26595 248.735 8.73242C249.154 8.19531 249.364 7.44873 249.364 6.49268V5.66553ZM256.217 7.15332C256.217 8.05924 256.017 8.77897 255.616 9.3125C255.215 9.84245 254.676 10.1074 253.999 10.1074C253.19 10.1074 252.577 9.80664 252.162 9.20508L252.135 10H251.534V1.75H252.173V5.03174C252.581 4.39795 253.186 4.08105 253.988 4.08105C254.676 4.08105 255.218 4.34424 255.616 4.87061C256.017 5.39339 256.217 6.12207 256.217 7.05664V7.15332ZM255.573 7.04053C255.573 6.27425 255.424 5.68343 255.127 5.26807C254.83 4.84912 254.411 4.63965 253.87 4.63965C253.458 4.63965 253.109 4.7417 252.823 4.9458C252.536 5.14632 252.32 5.44173 252.173 5.83203V8.45312C252.495 9.18359 253.064 9.54883 253.881 9.54883C254.411 9.54883 254.824 9.33936 255.122 8.92041C255.422 8.50146 255.573 7.87484 255.573 7.04053ZM259.891 10.1074C259.397 10.1074 258.949 9.98568 258.548 9.74219C258.151 9.4987 257.841 9.16032 257.619 8.72705C257.397 8.2902 257.286 7.80143 257.286 7.26074V7.02979C257.286 6.47119 257.394 5.9681 257.608 5.52051C257.827 5.07292 258.129 4.72201 258.516 4.46777C258.903 4.20996 259.322 4.08105 259.773 4.08105C260.478 4.08105 261.037 4.32275 261.449 4.80615C261.864 5.28597 262.072 5.94303 262.072 6.77734V7.13721H257.925V7.26074C257.925 7.9196 258.113 8.46924 258.489 8.90967C258.869 9.34652 259.345 9.56494 259.918 9.56494C260.262 9.56494 260.564 9.50228 260.826 9.37695C261.091 9.25163 261.331 9.05111 261.545 8.77539L261.948 9.08154C261.476 9.76546 260.79 10.1074 259.891 10.1074ZM259.773 4.62891C259.29 4.62891 258.881 4.80615 258.548 5.16064C258.219 5.51514 258.018 5.99137 257.947 6.58936H261.433V6.51953C261.415 5.96094 261.255 5.50618 260.955 5.15527C260.654 4.80436 260.26 4.62891 259.773 4.62891ZM266.804 8.52295C266.804 8.20426 266.675 7.94824 266.417 7.75488C266.163 7.56152 265.778 7.41113 265.262 7.30371C264.747 7.19271 264.346 7.06738 264.059 6.92773C263.776 6.78451 263.565 6.61084 263.425 6.40674C263.289 6.20264 263.221 5.95557 263.221 5.66553C263.221 5.20719 263.413 4.82943 263.796 4.53223C264.179 4.23145 264.67 4.08105 265.268 4.08105C265.916 4.08105 266.435 4.24219 266.825 4.56445C267.219 4.88314 267.416 5.30029 267.416 5.81592H266.771C266.771 5.47575 266.628 5.19287 266.342 4.96729C266.059 4.7417 265.701 4.62891 265.268 4.62891C264.845 4.62891 264.505 4.7238 264.247 4.91357C263.993 5.09977 263.866 5.34326 263.866 5.64404C263.866 5.93408 263.971 6.15967 264.183 6.3208C264.397 6.47835 264.786 6.62337 265.348 6.75586C265.914 6.88835 266.336 7.02979 266.616 7.18018C266.899 7.33057 267.108 7.51139 267.244 7.72266C267.38 7.93392 267.448 8.18994 267.448 8.49072C267.448 8.98128 267.25 9.37337 266.852 9.66699C266.458 9.96061 265.943 10.1074 265.305 10.1074C264.628 10.1074 264.079 9.9445 263.656 9.61865C263.237 9.28923 263.028 8.87386 263.028 8.37256H263.672C263.697 8.74854 263.855 9.04215 264.145 9.25342C264.439 9.4611 264.825 9.56494 265.305 9.56494C265.753 9.56494 266.114 9.46647 266.39 9.26953C266.666 9.07259 266.804 8.82373 266.804 8.52295ZM271.149 10.1074C270.655 10.1074 270.207 9.98568 269.806 9.74219C269.409 9.4987 269.099 9.16032 268.877 8.72705C268.655 8.2902 268.544 7.80143 268.544 7.26074V7.02979C268.544 6.47119 268.651 5.9681 268.866 5.52051C269.085 5.07292 269.387 4.72201 269.774 4.46777C270.161 4.20996 270.58 4.08105 271.031 4.08105C271.736 4.08105 272.295 4.32275 272.707 4.80615C273.122 5.28597 273.33 5.94303 273.33 6.77734V7.13721H269.183V7.26074C269.183 7.9196 269.371 8.46924 269.747 8.90967C270.127 9.34652 270.603 9.56494 271.176 9.56494C271.52 9.56494 271.822 9.50228 272.083 9.37695C272.348 9.25163 272.588 9.05111 272.803 8.77539L273.206 9.08154C272.733 9.76546 272.048 10.1074 271.149 10.1074ZM271.031 4.62891C270.547 4.62891 270.139 4.80615 269.806 5.16064C269.477 5.51514 269.276 5.99137 269.205 6.58936H272.69V6.51953C272.673 5.96094 272.513 5.50618 272.212 5.15527C271.912 4.80436 271.518 4.62891 271.031 4.62891Z" fill="black"/>
<path d="M298.784 6.25098H295.126V9.44141H299.332V10H294.466V2.17969H299.305V2.74365H295.126V5.69238H298.784V6.25098ZM302.404 6.54639L303.973 4.18848H304.735L302.764 7.04053L304.821 10H304.064L302.41 7.54004L300.755 10H299.998L302.05 7.04053L300.079 4.18848H300.836L302.404 6.54639ZM306.927 2.70068V4.18848H308.13V4.71484H306.927V8.5874C306.927 8.90967 306.984 9.14958 307.099 9.30713C307.217 9.46468 307.412 9.54346 307.684 9.54346C307.792 9.54346 307.965 9.52555 308.205 9.48975L308.232 10.0161C308.064 10.077 307.834 10.1074 307.544 10.1074C307.104 10.1074 306.784 9.98031 306.583 9.72607C306.382 9.46826 306.282 9.09049 306.282 8.59277V4.71484H305.213V4.18848H306.282V2.70068H306.927ZM312.147 4.73633C312.011 4.71126 311.866 4.69873 311.712 4.69873C311.311 4.69873 310.971 4.81152 310.692 5.03711C310.416 5.25911 310.219 5.58317 310.101 6.00928V10H309.462V4.18848H310.09L310.101 5.1123C310.441 4.4248 310.987 4.08105 311.739 4.08105C311.918 4.08105 312.06 4.10433 312.164 4.15088L312.147 4.73633ZM315.311 10.1074C314.817 10.1074 314.369 9.98568 313.968 9.74219C313.571 9.4987 313.261 9.16032 313.039 8.72705C312.817 8.2902 312.706 7.80143 312.706 7.26074V7.02979C312.706 6.47119 312.813 5.9681 313.028 5.52051C313.247 5.07292 313.549 4.72201 313.936 4.46777C314.323 4.20996 314.742 4.08105 315.193 4.08105C315.898 4.08105 316.457 4.32275 316.869 4.80615C317.284 5.28597 317.492 5.94303 317.492 6.77734V7.13721H313.345V7.26074C313.345 7.9196 313.533 8.46924 313.909 8.90967C314.289 9.34652 314.765 9.56494 315.338 9.56494C315.682 9.56494 315.984 9.50228 316.246 9.37695C316.511 9.25163 316.75 9.05111 316.965 8.77539L317.368 9.08154C316.896 9.76546 316.21 10.1074 315.311 10.1074ZM315.193 4.62891C314.709 4.62891 314.301 4.80615 313.968 5.16064C313.639 5.51514 313.438 5.99137 313.367 6.58936H316.853V6.51953C316.835 5.96094 316.675 5.50618 316.375 5.15527C316.074 4.80436 315.68 4.62891 315.193 4.62891ZM319.329 4.18848L319.35 5.13379C319.565 4.78288 319.833 4.51969 320.156 4.34424C320.478 4.16878 320.836 4.08105 321.23 4.08105C322.147 4.08105 322.729 4.45703 322.976 5.20898C323.183 4.84733 323.461 4.56982 323.808 4.37646C324.155 4.17952 324.539 4.08105 324.958 4.08105C326.204 4.08105 326.839 4.76139 326.864 6.12207V10H326.22V6.17041C326.216 5.6512 326.103 5.26628 325.881 5.01562C325.663 4.76497 325.305 4.63965 324.807 4.63965C324.345 4.64681 323.955 4.7972 323.636 5.09082C323.318 5.38086 323.14 5.73535 323.104 6.1543V10H322.46V6.12207C322.456 5.62435 322.338 5.25374 322.105 5.01025C321.876 4.76318 321.522 4.63965 321.042 4.63965C320.637 4.63965 320.29 4.75602 320 4.98877C319.71 5.21794 319.495 5.5599 319.355 6.01465V10H318.711V4.18848H319.329ZM329.217 10H328.572V1.75H329.217V10ZM332.81 9.07617L334.507 4.18848H335.2L332.719 10.9883L332.59 11.2891C332.271 11.9945 331.779 12.3472 331.113 12.3472C330.959 12.3472 330.794 12.3221 330.619 12.272L330.613 11.7402L330.946 11.7725C331.261 11.7725 331.516 11.6937 331.709 11.5361C331.906 11.3822 332.072 11.1154 332.208 10.7358L332.493 9.95166L330.302 4.18848H331.005L332.81 9.07617ZM344.804 6.51416C344.804 7.23389 344.678 7.86589 344.428 8.41016C344.181 8.95443 343.826 9.37337 343.364 9.66699C342.902 9.96061 342.369 10.1074 341.764 10.1074C340.851 10.1074 340.113 9.78158 339.551 9.12988C338.989 8.47461 338.708 7.59196 338.708 6.48193V5.67627C338.708 4.9637 338.833 4.3335 339.083 3.78564C339.338 3.23421 339.696 2.81169 340.158 2.51807C340.62 2.22087 341.151 2.07227 341.753 2.07227C342.354 2.07227 342.884 2.21729 343.343 2.50732C343.805 2.79736 344.161 3.20736 344.412 3.7373C344.662 4.26725 344.793 4.88135 344.804 5.57959V6.51416ZM344.143 5.66553C344.143 4.7238 343.93 3.98617 343.504 3.45264C343.078 2.91911 342.494 2.65234 341.753 2.65234C341.026 2.65234 340.446 2.9209 340.013 3.45801C339.583 3.99154 339.368 4.73812 339.368 5.69775V6.51416C339.368 7.44157 339.583 8.17741 340.013 8.72168C340.442 9.26237 341.026 9.53271 341.764 9.53271C342.512 9.53271 343.096 9.26595 343.515 8.73242C343.934 8.19531 344.143 7.44873 344.143 6.49268V5.66553ZM350.997 7.15332C350.997 8.05924 350.796 8.77897 350.395 9.3125C349.994 9.84245 349.455 10.1074 348.778 10.1074C347.969 10.1074 347.357 9.80664 346.941 9.20508L346.915 10H346.313V1.75H346.952V5.03174C347.36 4.39795 347.965 4.08105 348.768 4.08105C349.455 4.08105 349.998 4.34424 350.395 4.87061C350.796 5.39339 350.997 6.12207 350.997 7.05664V7.15332ZM350.352 7.04053C350.352 6.27425 350.203 5.68343 349.906 5.26807C349.609 4.84912 349.19 4.63965 348.649 4.63965C348.238 4.63965 347.889 4.7417 347.602 4.9458C347.316 5.14632 347.099 5.44173 346.952 5.83203V8.45312C347.274 9.18359 347.844 9.54883 348.66 9.54883C349.19 9.54883 349.604 9.33936 349.901 8.92041C350.202 8.50146 350.352 7.87484 350.352 7.04053ZM354.67 10.1074C354.176 10.1074 353.729 9.98568 353.328 9.74219C352.93 9.4987 352.62 9.16032 352.398 8.72705C352.176 8.2902 352.065 7.80143 352.065 7.26074V7.02979C352.065 6.47119 352.173 5.9681 352.388 5.52051C352.606 5.07292 352.909 4.72201 353.295 4.46777C353.682 4.20996 354.101 4.08105 354.552 4.08105C355.258 4.08105 355.816 4.32275 356.228 4.80615C356.643 5.28597 356.851 5.94303 356.851 6.77734V7.13721H352.705V7.26074C352.705 7.9196 352.893 8.46924 353.269 8.90967C353.648 9.34652 354.124 9.56494 354.697 9.56494C355.041 9.56494 355.344 9.50228 355.605 9.37695C355.87 9.25163 356.11 9.05111 356.325 8.77539L356.728 9.08154C356.255 9.76546 355.569 10.1074 354.67 10.1074ZM354.552 4.62891C354.069 4.62891 353.661 4.80615 353.328 5.16064C352.998 5.51514 352.798 5.99137 352.726 6.58936H356.212V6.51953C356.194 5.96094 356.035 5.50618 355.734 5.15527C355.433 4.80436 355.039 4.62891 354.552 4.62891ZM361.583 8.52295C361.583 8.20426 361.454 7.94824 361.196 7.75488C360.942 7.56152 360.557 7.41113 360.042 7.30371C359.526 7.19271 359.125 7.06738 358.838 6.92773C358.556 6.78451 358.344 6.61084 358.205 6.40674C358.069 6.20264 358 5.95557 358 5.66553C358 5.20719 358.192 4.82943 358.575 4.53223C358.958 4.23145 359.449 4.08105 360.047 4.08105C360.695 4.08105 361.214 4.24219 361.604 4.56445C361.998 4.88314 362.195 5.30029 362.195 5.81592H361.551C361.551 5.47575 361.408 5.19287 361.121 4.96729C360.838 4.7417 360.48 4.62891 360.047 4.62891C359.624 4.62891 359.284 4.7238 359.026 4.91357C358.772 5.09977 358.645 5.34326 358.645 5.64404C358.645 5.93408 358.751 6.15967 358.962 6.3208C359.177 6.47835 359.565 6.62337 360.127 6.75586C360.693 6.88835 361.116 7.02979 361.395 7.18018C361.678 7.33057 361.887 7.51139 362.023 7.72266C362.16 7.93392 362.228 8.18994 362.228 8.49072C362.228 8.98128 362.029 9.37337 361.631 9.66699C361.237 9.96061 360.722 10.1074 360.084 10.1074C359.408 10.1074 358.858 9.9445 358.436 9.61865C358.017 9.28923 357.807 8.87386 357.807 8.37256H358.452C358.477 8.74854 358.634 9.04215 358.924 9.25342C359.218 9.4611 359.605 9.56494 360.084 9.56494C360.532 9.56494 360.894 9.46647 361.169 9.26953C361.445 9.07259 361.583 8.82373 361.583 8.52295ZM365.928 10.1074C365.434 10.1074 364.986 9.98568 364.585 9.74219C364.188 9.4987 363.878 9.16032 363.656 8.72705C363.434 8.2902 363.323 7.80143 363.323 7.26074V7.02979C363.323 6.47119 363.431 5.9681 363.646 5.52051C363.864 5.07292 364.167 4.72201 364.553 4.46777C364.94 4.20996 365.359 4.08105 365.81 4.08105C366.515 4.08105 367.074 4.32275 367.486 4.80615C367.901 5.28597 368.109 5.94303 368.109 6.77734V7.13721H363.962V7.26074C363.962 7.9196 364.15 8.46924 364.526 8.90967C364.906 9.34652 365.382 9.56494 365.955 9.56494C366.299 9.56494 366.601 9.50228 366.863 9.37695C367.128 9.25163 367.368 9.05111 367.583 8.77539L367.985 9.08154C367.513 9.76546 366.827 10.1074 365.928 10.1074ZM365.81 4.62891C365.327 4.62891 364.918 4.80615 364.585 5.16064C364.256 5.51514 364.056 5.99137 363.984 6.58936H367.47V6.51953C367.452 5.96094 367.292 5.50618 366.992 5.15527C366.691 4.80436 366.297 4.62891 365.81 4.62891Z" fill="black"/>
</svg>
