<svg width="805" height="162" viewBox="0 0 805 162" fill="none" xmlns="http://www.w3.org/2000/svg">
<path d="M658.266 77.2562C663.519 51.4847 646.885 26.3346 621.114 21.082C595.342 15.8293 570.192 32.4632 564.939 58.2347C559.687 84.0063 576.321 109.156 602.092 114.409C627.864 119.662 653.014 103.028 658.266 77.2562Z" fill="#C6E5E7"/>
<path d="M621.758 69.7444H601.495L596.867 52.233C596.361 50.4708 596.238 48.6208 596.507 46.8073C597.018 43.7325 598.604 40.9388 600.982 38.9235C603.36 36.9082 606.375 35.8019 609.492 35.8016H613.761C615.778 35.7582 617.777 36.1901 619.596 37.0622C621.415 37.9344 623.003 39.2223 624.232 40.822C625.461 42.4216 626.297 44.2881 626.671 46.2704C627.045 48.2527 626.948 50.2953 626.387 52.233L621.758 69.7444Z" fill="white"/>
<path d="M628.457 68.189H594.81V77.3947H628.457V68.189Z" fill="white"/>
<path d="M604.774 73.7429H599.952V99.7786H604.774V73.7429Z" fill="white"/>
<path d="M618.492 99.7915H623.314V73.7558H618.492V99.7915Z" fill="white"/>
<path d="M596.895 133.232H594.012V137H592.939V128.469H597.381V129.394H594.012V132.312H596.895V133.232ZM601.688 134.773H598.805L598.143 137H597.041L599.789 128.469H600.709L603.463 137H602.361L601.688 134.773ZM599.086 133.847H601.412L600.246 129.969L599.086 133.847ZM608.848 129.394H606.604V137H605.531V129.394H603.293V128.469H608.848V129.394ZM611.227 137H610.154V128.469H611.227V137ZM618.445 135.939L618.258 136.174C617.719 136.802 616.93 137.117 615.891 137.117C614.969 137.117 614.244 136.812 613.717 136.203C613.193 135.59 612.926 134.724 612.914 133.607V131.931C612.914 130.736 613.152 129.842 613.629 129.248C614.109 128.65 614.826 128.351 615.779 128.351C616.592 128.351 617.227 128.578 617.684 129.031C618.145 129.484 618.398 130.131 618.445 130.97H617.373C617.33 130.439 617.182 130.025 616.928 129.728C616.678 129.427 616.297 129.277 615.785 129.277C615.172 129.277 614.723 129.478 614.438 129.881C614.152 130.279 614.004 130.918 613.992 131.797V133.537C613.992 134.396 614.156 135.056 614.484 135.517C614.813 135.974 615.283 136.203 615.897 136.203C616.475 136.203 616.914 136.062 617.215 135.781L617.373 135.635V133.666H615.814V132.752H618.445V135.939ZM625.283 128.469V134.533C625.275 135.342 625.041 135.974 624.58 136.431C624.119 136.888 623.477 137.117 622.652 137.117C621.809 137.117 621.164 136.894 620.719 136.449C620.273 136 620.047 135.361 620.039 134.533V128.469H621.105V134.492C621.105 135.066 621.227 135.496 621.469 135.781C621.715 136.062 622.109 136.203 622.652 136.203C623.199 136.203 623.594 136.062 623.836 135.781C624.082 135.496 624.205 135.066 624.205 134.492V128.469H625.283ZM631.025 133.056H628.008V136.08H631.523V137H626.936V128.469H631.465V129.394H628.008V132.136H631.025V133.056Z" fill="#9ACCD3"/>
<path d="M793.976 78.2138C799.924 52.5937 783.977 27.0029 758.357 21.0551C732.737 15.1073 707.146 31.0548 701.198 56.6748C695.25 82.2948 711.198 107.886 736.818 113.833C762.438 119.781 788.029 103.834 793.976 78.2138Z" fill="#C9A2EB"/>
<path d="M767.694 74.4102C767.735 79.7536 765.651 84.8943 761.902 88.7016C758.153 92.5089 753.044 94.6707 747.701 94.7116C742.358 94.7526 737.217 92.6692 733.41 88.9198C729.602 85.1704 727.44 80.0621 727.4 74.7188C727.31 63.5974 747.264 38.1531 747.264 38.1531C747.264 38.1531 767.694 63.2888 767.694 74.4102Z" fill="white"/>
<path d="M737.701 134.844C737.701 134.418 737.586 134.092 737.355 133.865C737.125 133.639 736.709 133.418 736.107 133.203C735.506 132.988 735.045 132.764 734.725 132.529C734.408 132.291 734.17 132.021 734.01 131.721C733.854 131.416 733.775 131.068 733.775 130.678C733.775 130.002 734 129.445 734.449 129.008C734.902 128.57 735.494 128.352 736.225 128.352C736.725 128.352 737.17 128.465 737.561 128.691C737.951 128.914 738.252 129.225 738.463 129.623C738.674 130.021 738.779 130.459 738.779 130.936H737.701C737.701 130.408 737.574 130 737.32 129.711C737.066 129.422 736.701 129.277 736.225 129.277C735.791 129.277 735.455 129.398 735.217 129.641C734.979 129.883 734.859 130.223 734.859 130.66C734.859 131.02 734.988 131.32 735.246 131.562C735.504 131.805 735.902 132.021 736.441 132.213C737.281 132.49 737.881 132.832 738.24 133.238C738.604 133.645 738.785 134.176 738.785 134.832C738.785 135.523 738.561 136.078 738.111 136.496C737.662 136.91 737.051 137.117 736.277 137.117C735.781 137.117 735.322 137.01 734.9 136.795C734.482 136.576 734.152 136.271 733.91 135.881C733.672 135.486 733.553 135.035 733.553 134.527H734.631C734.631 135.055 734.777 135.465 735.07 135.758C735.367 136.051 735.77 136.197 736.277 136.197C736.75 136.197 737.105 136.076 737.344 135.834C737.582 135.592 737.701 135.262 737.701 134.844ZM741.275 136.08H744.621V137H740.197V128.469H741.275V136.08ZM751.066 133.484C751.066 134.648 750.818 135.545 750.322 136.174C749.826 136.803 749.121 137.117 748.207 137.117C747.328 137.117 746.633 136.812 746.121 136.203C745.613 135.59 745.35 134.725 745.33 133.607V132.002C745.33 130.861 745.582 129.969 746.086 129.324C746.59 128.676 747.293 128.352 748.195 128.352C749.094 128.352 749.793 128.662 750.293 129.283C750.797 129.9 751.055 130.783 751.066 131.932V133.484ZM749.994 131.99C749.994 131.088 749.846 130.418 749.549 129.98C749.256 129.539 748.805 129.318 748.195 129.318C747.605 129.318 747.158 129.541 746.854 129.986C746.553 130.432 746.4 131.088 746.396 131.955V133.484C746.396 134.355 746.547 135.02 746.848 135.477C747.152 135.934 747.605 136.162 748.207 136.162C748.809 136.162 749.254 135.951 749.543 135.529C749.832 135.107 749.982 134.461 749.994 133.59V131.99ZM754.354 134.311L754.465 135.266L754.635 134.422L756 128.469H756.896L758.221 134.422L758.391 135.289L758.514 134.305L759.557 128.469H760.629L758.93 137H757.963L756.539 130.783L756.451 130.279L756.363 130.783L754.887 137H753.914L752.221 128.469H753.293L754.354 134.311ZM731.73 151H730.652V147.057H727.219V151H726.146V142.469H727.219V146.137H730.652V142.469H731.73V151ZM737.678 147.057H734.66V150.08H738.176V151H733.588V142.469H738.117V143.395H734.66V146.137H737.678V147.057ZM743.531 148.773H740.648L739.986 151H738.885L741.633 142.469H742.553L745.307 151H744.205L743.531 148.773ZM740.93 147.848H743.256L742.09 143.969L740.93 147.848ZM747.545 150.08H750.891V151H746.467V142.469H747.545V150.08ZM753.293 151H752.221V142.469H753.293V151ZM760.746 151H759.668L756.252 144.426V151H755.174V142.469H756.252L759.68 149.072V142.469H760.746V151ZM767.941 149.939L767.754 150.174C767.215 150.803 766.426 151.117 765.387 151.117C764.465 151.117 763.74 150.812 763.213 150.203C762.689 149.59 762.422 148.725 762.41 147.607V145.932C762.41 144.736 762.648 143.842 763.125 143.248C763.605 142.65 764.322 142.352 765.275 142.352C766.088 142.352 766.723 142.578 767.18 143.031C767.641 143.484 767.895 144.131 767.941 144.971H766.869C766.826 144.439 766.678 144.025 766.424 143.729C766.174 143.428 765.793 143.277 765.281 143.277C764.668 143.277 764.219 143.479 763.934 143.881C763.648 144.279 763.5 144.918 763.488 145.797V147.537C763.488 148.396 763.652 149.057 763.98 149.518C764.309 149.975 764.779 150.203 765.393 150.203C765.971 150.203 766.41 150.062 766.711 149.781L766.869 149.635V147.666H765.311V146.752H767.941V149.939Z" fill="#9ACCD3"/>
<path d="M93.949 106.524C115.401 91.3071 120.456 61.5806 105.239 40.1284C90.0215 18.6761 60.295 13.6216 38.8428 28.8387C17.3905 44.0559 12.336 73.7824 27.5531 95.2346C42.7703 116.687 72.4968 121.741 93.949 106.524Z" fill="#FDC68E"/>
<path d="M75.7974 82.3968C79.6269 78.1962 81.8294 72.7654 82.0074 67.0839L82.2388 60.8611L72.9045 58.2896C75.1558 57.1632 77.0242 55.3969 78.2754 53.2125C79.5266 51.0281 80.1047 48.5228 79.9374 46.0111C79.7997 43.7769 79.0812 41.6173 77.8528 39.7461C76.6244 37.8748 74.9288 36.3567 72.9337 35.3419C70.9385 34.327 68.7129 33.8507 66.4772 33.9599C64.2414 34.0691 62.0729 34.7602 60.1862 35.9646C58.2995 37.1691 56.7599 38.8453 55.7198 40.8274C54.6797 42.8095 54.175 45.0288 54.2558 47.2658C54.3366 49.5027 55 51.6798 56.1804 53.5817C57.3608 55.4836 59.0173 57.0444 60.986 58.1096L51.6003 60.6811L51.9088 67.1996C52.0825 72.7547 54.198 78.073 57.8874 82.2296L57.9903 82.3325C58.8992 83.39 59.4396 84.7143 59.5301 86.1058C59.6205 87.4973 59.2561 88.8805 58.4917 90.0468L51.806 101.091C56.5173 103.158 61.6139 104.201 66.7585 104.15C71.903 104.099 76.978 102.955 81.6474 100.795L75.2188 90.0082C74.4732 88.8496 74.1262 87.4792 74.2307 86.1054C74.3351 84.7315 74.8852 83.4294 75.7974 82.3968V82.3968Z" fill="white"/>
<path d="M36.9492 133.025L37.0606 133.98L37.2305 133.136L38.5957 127.183H39.4922L40.8164 133.136L40.9863 134.003L41.1094 133.019L42.1524 127.183H43.2246L41.5254 135.714H40.5586L39.1348 129.498L39.0469 128.994L38.959 129.498L37.4824 135.714H36.5098L34.8164 127.183H35.8887L36.9492 133.025ZM48.5508 131.771H45.5332V134.794H49.0488V135.714H44.461V127.183H48.9903V128.109H45.5332V130.851H48.5508V131.771ZM51.5449 135.714H50.4727V127.183H51.5449V135.714ZM58.7637 134.654L58.5762 134.888C58.0371 135.517 57.2481 135.832 56.209 135.832C55.2871 135.832 54.5625 135.527 54.0352 134.917C53.5117 134.304 53.2442 133.439 53.2324 132.322V130.646C53.2324 129.451 53.4707 128.556 53.9473 127.962C54.4278 127.365 55.1446 127.066 56.0977 127.066C56.9102 127.066 57.5449 127.292 58.002 127.746C58.4629 128.199 58.7168 128.845 58.7637 129.685H57.6914C57.6485 129.154 57.5 128.74 57.2461 128.443C56.9961 128.142 56.6153 127.992 56.1035 127.992C55.4903 127.992 55.041 128.193 54.7559 128.595C54.4707 128.994 54.3223 129.632 54.3106 130.511V132.251C54.3106 133.111 54.4746 133.771 54.8028 134.232C55.1309 134.689 55.6016 134.917 56.2149 134.917C56.793 134.917 57.2324 134.777 57.5332 134.496L57.6914 134.349V132.38H56.1328V131.466H58.7637V134.654ZM66.0996 135.714H65.0215V131.771H61.5879V135.714H60.5156V127.183H61.5879V130.851H65.0215V127.183H66.0996V135.714ZM72.7676 128.109H70.5235V135.714H69.4512V128.109H67.2129V127.183H72.7676V128.109ZM77.625 134.794H80.9707V135.714H76.5469V127.183H77.625V134.794ZM87.416 132.199C87.416 133.363 87.168 134.259 86.6719 134.888C86.1758 135.517 85.4707 135.832 84.5567 135.832C83.6778 135.832 82.9824 135.527 82.4707 134.917C81.9629 134.304 81.6992 133.439 81.6797 132.322V130.716C81.6797 129.576 81.9317 128.683 82.4356 128.039C82.9395 127.39 83.6426 127.066 84.5449 127.066C85.4434 127.066 86.1426 127.376 86.6426 127.998C87.1465 128.615 87.4043 129.498 87.416 130.646V132.199ZM86.3438 130.705C86.3438 129.802 86.1953 129.132 85.8985 128.695C85.6055 128.253 85.1543 128.033 84.5449 128.033C83.9551 128.033 83.5078 128.255 83.2031 128.701C82.9024 129.146 82.75 129.802 82.7461 130.669V132.199C82.7461 133.07 82.8965 133.734 83.1973 134.191C83.502 134.648 83.9551 134.876 84.5567 134.876C85.1582 134.876 85.6035 134.666 85.8926 134.244C86.1817 133.822 86.3321 133.175 86.3438 132.304V130.705ZM92.8008 133.558C92.8008 133.132 92.6856 132.806 92.4551 132.58C92.2246 132.353 91.8086 132.132 91.2071 131.917C90.6055 131.703 90.1446 131.478 89.8242 131.244C89.5078 131.005 89.2696 130.736 89.1094 130.435C88.9531 130.13 88.875 129.783 88.875 129.392C88.875 128.716 89.0996 128.16 89.5488 127.722C90.002 127.285 90.5938 127.066 91.3242 127.066C91.8242 127.066 92.2696 127.179 92.6602 127.406C93.0508 127.628 93.3516 127.939 93.5625 128.337C93.7735 128.736 93.8789 129.173 93.8789 129.65H92.8008C92.8008 129.123 92.6738 128.714 92.4199 128.425C92.166 128.136 91.8008 127.992 91.3242 127.992C90.8906 127.992 90.5547 128.113 90.3164 128.355C90.0781 128.597 89.959 128.937 89.959 129.375C89.959 129.734 90.0879 130.035 90.3457 130.277C90.6035 130.519 91.002 130.736 91.541 130.927C92.3809 131.205 92.9805 131.546 93.3399 131.953C93.7031 132.359 93.8848 132.89 93.8848 133.546C93.8848 134.238 93.6602 134.792 93.211 135.21C92.7617 135.625 92.1504 135.832 91.377 135.832C90.8809 135.832 90.4219 135.724 90 135.509C89.5821 135.291 89.252 134.986 89.0098 134.595C88.7715 134.201 88.6524 133.75 88.6524 133.242H89.7305C89.7305 133.769 89.877 134.179 90.1699 134.472C90.4668 134.765 90.8692 134.912 91.377 134.912C91.8496 134.912 92.2051 134.791 92.4434 134.548C92.6817 134.306 92.8008 133.976 92.8008 133.558ZM99.0235 133.558C99.0235 133.132 98.9082 132.806 98.6777 132.58C98.4473 132.353 98.0313 132.132 97.4297 131.917C96.8281 131.703 96.3672 131.478 96.0469 131.244C95.7305 131.005 95.4922 130.736 95.332 130.435C95.1758 130.13 95.0977 129.783 95.0977 129.392C95.0977 128.716 95.3223 128.16 95.7715 127.722C96.2246 127.285 96.8164 127.066 97.5469 127.066C98.0469 127.066 98.4922 127.179 98.8828 127.406C99.2735 127.628 99.5742 127.939 99.7852 128.337C99.9961 128.736 100.102 129.173 100.102 129.65H99.0235C99.0235 129.123 98.8965 128.714 98.6426 128.425C98.3887 128.136 98.0235 127.992 97.5469 127.992C97.1133 127.992 96.7774 128.113 96.5391 128.355C96.3008 128.597 96.1817 128.937 96.1817 129.375C96.1817 129.734 96.3106 130.035 96.5684 130.277C96.8262 130.519 97.2246 130.736 97.7637 130.927C98.6035 131.205 99.2031 131.546 99.5625 131.953C99.9258 132.359 100.107 132.89 100.107 133.546C100.107 134.238 99.8828 134.792 99.4336 135.21C98.9844 135.625 98.3731 135.832 97.5996 135.832C97.1035 135.832 96.6445 135.724 96.2227 135.509C95.8047 135.291 95.4746 134.986 95.2324 134.595C94.9942 134.201 94.875 133.75 94.875 133.242H95.9531C95.9531 133.769 96.0996 134.179 96.3926 134.472C96.6895 134.765 97.0918 134.912 97.5996 134.912C98.0723 134.912 98.4277 134.791 98.666 134.548C98.9043 134.306 99.0235 133.976 99.0235 133.558Z" fill="#9ACCD3"/>
<path d="M385.695 77.2562C390.948 51.4847 374.314 26.3346 348.542 21.082C322.771 15.8293 297.621 32.4632 292.368 58.2347C287.115 84.0063 303.749 109.156 329.521 114.409C355.292 119.662 380.442 103.028 385.695 77.2562Z" fill="#E36A6A"/>
<path d="M352.8 96.9243H325.311L319.255 43.3357H358.855L352.8 96.9243Z" fill="white"/>
<path d="M325.62 53.6343L329.503 87.9243H348.608L352.491 53.6343H325.62Z" fill="#E36A6A"/>
<path d="M303.755 137V128.469H306.187C306.964 128.469 307.548 128.658 307.939 129.037C308.333 129.416 308.53 129.984 308.53 130.742C308.53 131.14 308.431 131.492 308.232 131.797C308.032 132.101 307.763 132.338 307.423 132.506C307.814 132.623 308.122 132.863 308.349 133.226C308.579 133.59 308.694 134.027 308.694 134.539C308.694 135.304 308.484 135.906 308.062 136.344C307.644 136.781 307.046 137 306.269 137H303.755ZM304.827 133.01V136.08H306.292C306.698 136.08 307.021 135.947 307.259 135.681C307.497 135.412 307.616 135.035 307.616 134.551C307.616 133.523 307.183 133.01 306.316 133.01H304.827ZM304.827 132.107H306.204C306.575 132.107 306.874 131.982 307.101 131.732C307.331 131.482 307.446 131.15 307.446 130.736C307.446 130.267 307.343 129.927 307.136 129.717C306.929 129.502 306.612 129.394 306.187 129.394H304.827V132.107ZM314.396 133.056H311.378V136.08H314.894V137H310.306V128.469H314.835V129.394H311.378V132.136H314.396V133.056ZM317.39 137H316.317V128.469H317.39V137ZM324.843 137H323.765L320.349 130.426V137H319.271V128.469H320.349L323.776 135.072V128.469H324.843V137ZM332.038 135.939L331.851 136.174C331.312 136.802 330.523 137.117 329.484 137.117C328.562 137.117 327.837 136.812 327.31 136.203C326.786 135.59 326.519 134.724 326.507 133.607V131.931C326.507 130.736 326.745 129.842 327.222 129.248C327.702 128.65 328.419 128.351 329.372 128.351C330.185 128.351 330.819 128.578 331.276 129.031C331.737 129.484 331.991 130.131 332.038 130.97H330.966C330.923 130.439 330.775 130.025 330.521 129.728C330.271 129.427 329.89 129.277 329.378 129.277C328.765 129.277 328.316 129.478 328.03 129.881C327.745 130.279 327.597 130.918 327.585 131.797V133.537C327.585 134.396 327.749 135.056 328.077 135.517C328.405 135.974 328.876 136.203 329.489 136.203C330.067 136.203 330.507 136.062 330.808 135.781L330.966 135.635V133.666H329.407V132.752H332.038V135.939ZM341.296 129.394H339.052V137H337.98V129.394H335.741V128.469H341.296V129.394ZM348.14 137H347.062V133.056H343.628V137H342.556V128.469H343.628V132.136H347.062V128.469H348.14V137ZM351.116 137H350.044V128.469H351.116V137ZM355.575 133.549H354.075V137H352.997V128.469H355.388C356.224 128.469 356.857 128.687 357.286 129.125C357.716 129.558 357.931 130.195 357.931 131.035C357.931 131.562 357.814 132.023 357.579 132.418C357.349 132.808 357.021 133.103 356.595 133.302L358.247 136.929V137H357.093L355.575 133.549ZM354.075 132.629H355.376C355.825 132.629 356.183 132.484 356.448 132.195C356.718 131.906 356.853 131.519 356.853 131.035C356.853 129.941 356.357 129.394 355.364 129.394H354.075V132.629ZM363.099 134.844C363.099 134.418 362.984 134.092 362.753 133.865C362.523 133.638 362.107 133.418 361.505 133.203C360.903 132.988 360.442 132.763 360.122 132.529C359.806 132.291 359.567 132.021 359.407 131.72C359.251 131.416 359.173 131.068 359.173 130.677C359.173 130.002 359.398 129.445 359.847 129.008C360.3 128.57 360.892 128.351 361.622 128.351C362.122 128.351 362.567 128.465 362.958 128.691C363.349 128.914 363.65 129.224 363.86 129.623C364.071 130.021 364.177 130.459 364.177 130.935H363.099C363.099 130.408 362.972 130 362.718 129.711C362.464 129.422 362.099 129.277 361.622 129.277C361.189 129.277 360.853 129.398 360.614 129.64C360.376 129.883 360.257 130.222 360.257 130.66C360.257 131.019 360.386 131.32 360.644 131.562C360.901 131.804 361.3 132.021 361.839 132.213C362.679 132.49 363.278 132.832 363.638 133.238C364.001 133.644 364.183 134.176 364.183 134.832C364.183 135.523 363.958 136.078 363.509 136.496C363.06 136.91 362.448 137.117 361.675 137.117C361.179 137.117 360.72 137.01 360.298 136.795C359.88 136.576 359.55 136.271 359.308 135.881C359.069 135.486 358.95 135.035 358.95 134.527H360.028C360.028 135.054 360.175 135.465 360.468 135.758C360.765 136.051 361.167 136.197 361.675 136.197C362.148 136.197 362.503 136.076 362.741 135.834C362.98 135.592 363.099 135.261 363.099 134.844ZM370.581 129.394H368.337V137H367.265V129.394H365.026V128.469H370.581V129.394ZM374.155 132.752L375.901 128.469H377.114L374.689 133.818V137H373.616V133.818L371.191 128.469H372.409L374.155 132.752Z" fill="#9ACCD3"/>
<path d="M521.405 78.2138C527.353 52.5938 511.405 27.0029 485.785 21.0551C460.165 15.1073 434.574 31.0548 428.627 56.6748C422.679 82.2948 438.626 107.886 464.246 113.833C489.866 119.781 515.457 103.834 521.405 78.2138Z" fill="#86D8DD"/>
<path d="M506.693 67.4561C506.693 67.4561 495.263 88.4518 475.065 88.4518C454.866 88.4518 443.398 67.4561 443.398 67.4561C443.398 67.4561 454.969 46.4604 475.026 46.4604C495.083 46.4604 506.693 67.4561 506.693 67.4561Z" fill="white"/>
<path d="M488.545 70.6363C490.299 63.1707 485.668 55.6968 478.203 53.943C470.737 52.1892 463.263 56.8196 461.509 64.2853C459.756 71.7509 464.386 79.2247 471.852 80.9785C479.317 82.7323 486.791 78.102 488.545 70.6363Z" fill="#86D8DD"/>
<path d="M485.685 69.3846C484.997 69.3799 484.319 69.2336 483.69 68.9549C483.062 68.6762 482.498 68.271 482.033 67.7645C481.808 67.4663 481.517 67.2244 481.182 67.0578C480.847 66.8912 480.479 66.8045 480.105 66.8045C479.731 66.8045 479.362 66.8912 479.028 67.0578C478.693 67.2244 478.402 67.4663 478.176 67.7645C477.716 68.2786 477.152 68.6899 476.521 68.9714C475.891 69.253 475.209 69.3984 474.518 69.3984C473.828 69.3984 473.146 69.253 472.515 68.9714C471.885 68.6899 471.321 68.2786 470.86 67.7645C470.634 67.4686 470.342 67.2288 470.007 67.0638C469.673 66.8987 469.305 66.8129 468.932 66.8129C468.559 66.8129 468.191 66.8987 467.857 67.0638C467.522 67.2288 467.23 67.4686 467.003 67.7645C466.544 68.2783 465.981 68.6894 465.352 68.9708C464.723 69.2522 464.041 69.3977 463.352 69.3977C462.663 69.3977 461.981 69.2522 461.352 68.9708C460.723 68.6894 460.16 68.2783 459.701 67.7645C459.467 67.4801 459.175 67.2492 458.845 67.0872C458.514 66.9253 458.153 66.8362 457.785 66.826V64.2546C458.474 64.2569 459.154 64.4034 459.783 64.6846C460.412 64.9659 460.975 65.3756 461.436 65.8874C461.663 66.1834 461.955 66.4232 462.289 66.5882C462.624 66.7532 462.992 66.8391 463.365 66.8391C463.738 66.8391 464.106 66.7532 464.44 66.5882C464.775 66.4232 465.066 66.1834 465.293 65.8874C465.753 65.3736 466.316 64.9626 466.945 64.6812C467.574 64.3997 468.256 64.2543 468.945 64.2543C469.634 64.2543 470.316 64.3997 470.945 64.6812C471.574 64.9626 472.137 65.3736 472.596 65.8874C472.823 66.1834 473.115 66.4232 473.449 66.5882C473.784 66.7532 474.152 66.8391 474.525 66.8391C474.898 66.8391 475.266 66.7532 475.6 66.5882C475.935 66.4232 476.226 66.1834 476.453 65.8874C476.915 65.3751 477.479 64.9655 478.109 64.6852C478.74 64.4048 479.422 64.2599 480.111 64.2599C480.801 64.2599 481.483 64.4048 482.113 64.6852C482.743 64.9655 483.307 65.3751 483.769 65.8874C484.001 66.1742 484.293 66.4076 484.623 66.5718C484.954 66.736 485.316 66.827 485.685 66.8388C486.055 66.8341 486.419 66.7461 486.751 66.5814C487.083 66.4167 487.373 66.1795 487.6 65.8874C488.065 65.3753 488.63 64.9648 489.261 64.6816C489.891 64.3984 490.574 64.2486 491.265 64.2417V66.8131C490.896 66.8249 490.534 66.916 490.203 67.0802C489.873 67.2444 489.581 67.4778 489.349 67.7645C488.882 68.2719 488.316 68.6777 487.686 68.9564C487.055 69.2352 486.374 69.3809 485.685 69.3846Z" fill="white"/>
<path d="M453.866 137V128.469H456.298C457.075 128.469 457.659 128.658 458.05 129.037C458.444 129.416 458.642 129.984 458.642 130.742C458.642 131.141 458.542 131.492 458.343 131.797C458.144 132.102 457.874 132.338 457.534 132.506C457.925 132.623 458.234 132.863 458.46 133.227C458.691 133.59 458.806 134.027 458.806 134.539C458.806 135.305 458.595 135.906 458.173 136.344C457.755 136.781 457.157 137 456.38 137H453.866ZM454.939 133.01V136.08H456.403C456.81 136.08 457.132 135.947 457.37 135.682C457.609 135.412 457.728 135.035 457.728 134.551C457.728 133.523 457.294 133.01 456.427 133.01H454.939ZM454.939 132.107H456.316C456.687 132.107 456.985 131.982 457.212 131.732C457.443 131.482 457.558 131.15 457.558 130.736C457.558 130.268 457.454 129.928 457.247 129.717C457.04 129.502 456.724 129.395 456.298 129.395H454.939V132.107ZM461.495 136.08H464.841V137H460.417V128.469H461.495V136.08ZM470.894 128.469V134.533C470.886 135.342 470.652 135.975 470.191 136.432C469.73 136.889 469.087 137.117 468.263 137.117C467.419 137.117 466.775 136.895 466.329 136.449C465.884 136 465.657 135.361 465.65 134.533V128.469H466.716V134.492C466.716 135.066 466.837 135.496 467.079 135.781C467.325 136.062 467.72 136.203 468.263 136.203C468.81 136.203 469.204 136.062 469.446 135.781C469.693 135.496 469.816 135.066 469.816 134.492V128.469H470.894ZM475.124 133.549H473.624V137H472.546V128.469H474.937C475.773 128.469 476.405 128.688 476.835 129.125C477.265 129.559 477.48 130.195 477.48 131.035C477.48 131.562 477.362 132.023 477.128 132.418C476.898 132.809 476.569 133.104 476.144 133.303L477.796 136.93V137H476.642L475.124 133.549ZM473.624 132.629H474.925C475.374 132.629 475.732 132.484 475.997 132.195C476.267 131.906 476.402 131.52 476.402 131.035C476.402 129.941 475.905 129.395 474.913 129.395H473.624V132.629ZM481.499 133.549H479.999V137H478.921V128.469H481.312C482.148 128.469 482.78 128.688 483.21 129.125C483.64 129.559 483.855 130.195 483.855 131.035C483.855 131.562 483.737 132.023 483.503 132.418C483.273 132.809 482.944 133.104 482.519 133.303L484.171 136.93V137H483.017L481.499 133.549ZM479.999 132.629H481.3C481.749 132.629 482.107 132.484 482.372 132.195C482.642 131.906 482.777 131.52 482.777 131.035C482.777 129.941 482.28 129.395 481.288 129.395H479.999V132.629ZM489.386 133.057H486.368V136.08H489.884V137H485.296V128.469H489.825V129.395H486.368V132.137H489.386V133.057ZM491.261 137V128.469H493.294C494.29 128.469 495.064 128.781 495.614 129.406C496.165 130.027 496.441 130.902 496.441 132.031V133.461C496.441 134.59 496.161 135.463 495.603 136.08C495.044 136.693 494.234 137 493.171 137H491.261ZM492.333 129.395V136.08H493.194C493.948 136.08 494.499 135.865 494.847 135.436C495.194 135.002 495.372 134.361 495.38 133.514V132.002C495.38 131.104 495.206 130.445 494.859 130.027C494.515 129.605 493.993 129.395 493.294 129.395H492.333ZM461.636 149.354L463.587 142.469H464.765L462.11 151H461.173L458.525 142.469H459.696L461.636 149.354ZM467.044 151H465.972V142.469H467.044V151ZM472.652 148.844C472.652 148.418 472.536 148.092 472.306 147.865C472.075 147.639 471.659 147.418 471.058 147.203C470.456 146.988 469.995 146.764 469.675 146.529C469.359 146.291 469.12 146.021 468.96 145.721C468.804 145.416 468.726 145.068 468.726 144.678C468.726 144.002 468.95 143.445 469.4 143.008C469.853 142.57 470.444 142.352 471.175 142.352C471.675 142.352 472.12 142.465 472.511 142.691C472.902 142.914 473.202 143.225 473.413 143.623C473.624 144.021 473.73 144.459 473.73 144.936H472.652C472.652 144.408 472.525 144 472.271 143.711C472.017 143.422 471.652 143.277 471.175 143.277C470.741 143.277 470.405 143.398 470.167 143.641C469.929 143.883 469.81 144.223 469.81 144.66C469.81 145.02 469.939 145.32 470.196 145.562C470.454 145.805 470.853 146.021 471.392 146.213C472.232 146.49 472.831 146.832 473.191 147.238C473.554 147.645 473.735 148.176 473.735 148.832C473.735 149.523 473.511 150.078 473.062 150.496C472.612 150.91 472.001 151.117 471.228 151.117C470.732 151.117 470.273 151.01 469.851 150.795C469.433 150.576 469.103 150.271 468.86 149.881C468.622 149.486 468.503 149.035 468.503 148.527H469.581C469.581 149.055 469.728 149.465 470.021 149.758C470.318 150.051 470.72 150.197 471.228 150.197C471.7 150.197 472.056 150.076 472.294 149.834C472.532 149.592 472.652 149.262 472.652 148.844ZM476.267 151H475.194V142.469H476.267V151ZM483.696 147.484C483.696 148.648 483.448 149.545 482.952 150.174C482.456 150.803 481.751 151.117 480.837 151.117C479.958 151.117 479.263 150.812 478.751 150.203C478.243 149.59 477.98 148.725 477.96 147.607V146.002C477.96 144.861 478.212 143.969 478.716 143.324C479.22 142.676 479.923 142.352 480.825 142.352C481.724 142.352 482.423 142.662 482.923 143.283C483.427 143.9 483.685 144.783 483.696 145.932V147.484ZM482.624 145.99C482.624 145.088 482.476 144.418 482.179 143.98C481.886 143.539 481.435 143.318 480.825 143.318C480.235 143.318 479.788 143.541 479.484 143.986C479.183 144.432 479.03 145.088 479.027 145.955V147.484C479.027 148.355 479.177 149.02 479.478 149.477C479.782 149.934 480.235 150.162 480.837 150.162C481.439 150.162 481.884 149.951 482.173 149.529C482.462 149.107 482.612 148.461 482.624 147.59V145.99ZM490.927 151H489.849L486.433 144.426V151H485.355V142.469H486.433L489.86 149.072V142.469H490.927V151Z" fill="#9ACCD3"/>
<path d="M236.023 101.023C254.621 82.4254 254.621 52.2723 236.023 33.6744C217.425 15.0765 187.272 15.0765 168.674 33.6744C150.077 52.2723 150.077 82.4254 168.674 101.023C187.272 119.621 217.425 119.621 236.023 101.023Z" fill="#BCE097"/>
<path d="M204.44 39.4282V59.9997H172.297V70.1568C172.297 77.4082 179.112 83.1425 186.376 83.1425H195.44V95.9997H222.44V39.4282H204.44Z" fill="white"/>
<path d="M215.716 34.2854H210.894V42.7326H215.716V34.2854Z" fill="white"/>
<path d="M180.974 133.232H178.092V137H177.019V128.469H181.461V129.395H178.092V132.312H180.974V133.232ZM185.363 133.549H183.863V137H182.785V128.469H185.176C186.011 128.469 186.644 128.688 187.074 129.125C187.504 129.559 187.718 130.195 187.718 131.035C187.718 131.562 187.601 132.023 187.367 132.418C187.136 132.809 186.808 133.104 186.383 133.303L188.035 136.93V137H186.881L185.363 133.549ZM183.863 132.629H185.164C185.613 132.629 185.97 132.484 186.236 132.195C186.506 131.906 186.64 131.52 186.64 131.035C186.64 129.941 186.144 129.395 185.152 129.395H183.863V132.629ZM193.25 133.057H190.232V136.08H193.748V137H189.16V128.469H193.689V129.395H190.232V132.137H193.25V133.057ZM200.627 133.479C200.627 134.229 200.525 134.863 200.322 135.383C200.123 135.898 199.838 136.301 199.467 136.59L200.738 137.732L200.011 138.441L198.476 137.041C198.23 137.092 197.992 137.117 197.761 137.117C196.875 137.117 196.176 136.807 195.664 136.186C195.156 135.561 194.896 134.684 194.885 133.555V132.002C194.885 130.854 195.136 129.959 195.64 129.318C196.144 128.674 196.847 128.352 197.75 128.352C198.66 128.352 199.365 128.666 199.865 129.295C200.365 129.92 200.619 130.807 200.627 131.955V133.479ZM199.554 131.99C199.554 131.088 199.406 130.418 199.109 129.98C198.816 129.539 198.363 129.318 197.75 129.318C197.164 129.318 196.718 129.541 196.414 129.986C196.113 130.432 195.961 131.088 195.957 131.955V133.479C195.957 134.354 196.107 135.02 196.408 135.477C196.713 135.934 197.164 136.162 197.761 136.162C198.355 136.162 198.799 135.955 199.092 135.541C199.385 135.127 199.539 134.488 199.554 133.625V131.99ZM207.418 128.469V134.533C207.41 135.342 207.176 135.975 206.715 136.432C206.254 136.889 205.611 137.117 204.787 137.117C203.943 137.117 203.299 136.895 202.853 136.449C202.408 136 202.181 135.361 202.174 134.533V128.469H203.24V134.492C203.24 135.066 203.361 135.496 203.603 135.781C203.849 136.062 204.244 136.203 204.787 136.203C205.334 136.203 205.728 136.062 205.97 135.781C206.217 135.496 206.34 135.066 206.34 134.492V128.469H207.418ZM213.16 133.057H210.142V136.08H213.658V137H209.07V128.469H213.599V129.395H210.142V132.137H213.16V133.057ZM220.607 137H219.529L216.113 130.426V137H215.035V128.469H216.113L219.541 135.072V128.469H220.607V137ZM227.275 129.395H225.031V137H223.959V129.395H221.72V128.469H227.275V129.395ZM181.021 142.469V148.533C181.013 149.342 180.779 149.975 180.318 150.432C179.857 150.889 179.215 151.117 178.39 151.117C177.547 151.117 176.902 150.895 176.457 150.449C176.011 150 175.785 149.361 175.777 148.533V142.469H176.843V148.492C176.843 149.066 176.965 149.496 177.207 149.781C177.453 150.062 177.847 150.203 178.39 150.203C178.937 150.203 179.332 150.062 179.574 149.781C179.82 149.496 179.943 149.066 179.943 148.492V142.469H181.021ZM185.252 147.549H183.752V151H182.674V142.469H185.064C185.9 142.469 186.533 142.688 186.963 143.125C187.392 143.559 187.607 144.195 187.607 145.035C187.607 145.562 187.49 146.023 187.256 146.418C187.025 146.809 186.697 147.104 186.271 147.303L187.924 150.93V151H186.769L185.252 147.549ZM183.752 146.629H185.052C185.502 146.629 185.859 146.484 186.125 146.195C186.394 145.906 186.529 145.52 186.529 145.035C186.529 143.941 186.033 143.395 185.041 143.395H183.752V146.629ZM190.168 151H189.095V142.469H190.168V151ZM197.621 151H196.543L193.127 144.426V151H192.049V142.469H193.127L196.554 149.072V142.469H197.621V151ZM203.562 148.773H200.679L200.017 151H198.916L201.664 142.469H202.584L205.338 151H204.236L203.562 148.773ZM200.961 147.848H203.287L202.121 143.969L200.961 147.848ZM210.722 143.395H208.478V151H207.406V143.395H205.168V142.469H210.722V143.395ZM213.101 151H212.029V142.469H213.101V151ZM220.531 147.484C220.531 148.648 220.283 149.545 219.787 150.174C219.291 150.803 218.586 151.117 217.672 151.117C216.793 151.117 216.097 150.812 215.586 150.203C215.078 149.59 214.814 148.725 214.795 147.607V146.002C214.795 144.861 215.047 143.969 215.551 143.324C216.054 142.676 216.758 142.352 217.66 142.352C218.558 142.352 219.258 142.662 219.758 143.283C220.261 143.9 220.519 144.783 220.531 145.932V147.484ZM219.459 145.99C219.459 145.088 219.31 144.418 219.013 143.98C218.72 143.539 218.269 143.318 217.66 143.318C217.07 143.318 216.623 143.541 216.318 143.986C216.017 144.432 215.865 145.088 215.861 145.955V147.484C215.861 148.355 216.011 149.02 216.312 149.477C216.617 149.934 217.07 150.162 217.672 150.162C218.273 150.162 218.718 149.951 219.008 149.529C219.297 149.107 219.447 148.461 219.459 147.59V145.99ZM227.761 151H226.683L223.267 144.426V151H222.189V142.469H223.267L226.695 149.072V142.469H227.761V151Z" fill="#9ACCD3"/>
</svg>
